<svg width="1693" height="323" viewBox="0 0 1693 323" fill="none" xmlns="http://www.w3.org/2000/svg">
<g opacity="0.9">
<path d="M128.909 33.1818V103H120.455V33.1818H128.909ZM201.224 33.1818V103H193.043L154.997 48.1818H154.315V103H145.861V33.1818H154.043L192.224 88.1364H192.906V33.1818H201.224ZM214.324 40.6818V33.1818H266.688V40.6818H244.733V103H236.278V40.6818H214.324ZM279.736 103V33.1818H303.327C308.781 33.1818 313.259 34.1136 316.759 35.9773C320.259 37.8182 322.849 40.3523 324.531 43.5795C326.213 46.8068 327.054 50.4773 327.054 54.5909C327.054 58.7045 326.213 62.3523 324.531 65.5341C322.849 68.7159 320.27 71.2159 316.793 73.0341C313.315 74.8295 308.872 75.7273 303.463 75.7273H284.372V68.0909H303.19C306.918 68.0909 309.918 67.5455 312.19 66.4545C314.486 65.3636 316.145 63.8182 317.168 61.8182C318.213 59.7955 318.736 57.3864 318.736 54.5909C318.736 51.7955 318.213 49.3523 317.168 47.2614C316.122 45.1705 314.452 43.5568 312.156 42.4205C309.861 41.2614 306.827 40.6818 303.054 40.6818H288.19V103H279.736ZM312.599 71.6364L329.781 103H319.963L303.054 71.6364H312.599ZM344.006 103H335.142L360.778 33.1818H369.506L395.142 103H386.278L365.415 44.2273H364.869L344.006 103ZM347.278 75.7273H383.006V83.2273H347.278V75.7273ZM458.918 55H450.463C449.963 52.5682 449.088 50.4318 447.838 48.5909C446.611 46.75 445.111 45.2045 443.338 43.9545C441.588 42.6818 439.645 41.7273 437.509 41.0909C435.372 40.4545 433.145 40.1364 430.827 40.1364C426.599 40.1364 422.77 41.2045 419.338 43.3409C415.929 45.4773 413.213 48.625 411.19 52.7841C409.19 56.9432 408.19 62.0455 408.19 68.0909C408.19 74.1364 409.19 79.2386 411.19 83.3977C413.213 87.5568 415.929 90.7045 419.338 92.8409C422.77 94.9773 426.599 96.0455 430.827 96.0455C433.145 96.0455 435.372 95.7273 437.509 95.0909C439.645 94.4545 441.588 93.5114 443.338 92.2614C445.111 90.9886 446.611 89.4318 447.838 87.5909C449.088 85.7273 449.963 83.5909 450.463 81.1818H458.918C458.281 84.75 457.122 87.9432 455.44 90.7614C453.759 93.5795 451.668 95.9773 449.168 97.9545C446.668 99.9091 443.861 101.398 440.747 102.42C437.656 103.443 434.349 103.955 430.827 103.955C424.872 103.955 419.577 102.5 414.94 99.5909C410.304 96.6818 406.656 92.5455 403.997 87.1818C401.338 81.8182 400.009 75.4545 400.009 68.0909C400.009 60.7273 401.338 54.3636 403.997 49C406.656 43.6364 410.304 39.5 414.94 36.5909C419.577 33.6818 424.872 32.2273 430.827 32.2273C434.349 32.2273 437.656 32.7386 440.747 33.7614C443.861 34.7841 446.668 36.2841 449.168 38.2614C451.668 40.2159 453.759 42.6023 455.44 45.4205C457.122 48.2159 458.281 51.4091 458.918 55ZM472.58 103V33.1818H514.716V40.6818H481.034V64.2727H512.534V71.7727H481.034V95.5H515.261V103H472.58ZM522.636 157.727V181H519.818V157.727H522.636ZM546.741 157.727V181H544.014L531.332 162.727H531.105V181H528.287V157.727H531.014L543.741 176.045H543.969V157.727H546.741ZM681.42 160.227V157.727H698.875V160.227H691.557V181H688.739V160.227H681.42ZM703.224 181V157.727H711.088C712.906 157.727 714.399 158.038 715.565 158.659C716.732 159.273 717.596 160.117 718.156 161.193C718.717 162.269 718.997 163.492 718.997 164.864C718.997 166.235 718.717 167.451 718.156 168.511C717.596 169.572 716.736 170.405 715.577 171.011C714.418 171.61 712.937 171.909 711.134 171.909H704.77V169.364H711.043C712.285 169.364 713.285 169.182 714.043 168.818C714.808 168.455 715.361 167.939 715.702 167.273C716.05 166.598 716.224 165.795 716.224 164.864C716.224 163.932 716.05 163.117 715.702 162.42C715.353 161.723 714.796 161.186 714.031 160.807C713.266 160.42 712.255 160.227 710.997 160.227H706.043V181H703.224ZM714.179 170.545L719.906 181H716.634L710.997 170.545H714.179ZM724.648 181H721.693L730.239 157.727H733.148L741.693 181H738.739L731.784 161.409H731.602L724.648 181ZM725.739 171.909H737.648V174.409H725.739V171.909ZM762.952 165H760.134C759.967 164.189 759.675 163.477 759.259 162.864C758.849 162.25 758.349 161.735 757.759 161.318C757.175 160.894 756.527 160.576 755.815 160.364C755.103 160.152 754.361 160.045 753.588 160.045C752.179 160.045 750.902 160.402 749.759 161.114C748.622 161.826 747.717 162.875 747.043 164.261C746.376 165.648 746.043 167.348 746.043 169.364C746.043 171.379 746.376 173.08 747.043 174.466C747.717 175.852 748.622 176.902 749.759 177.614C750.902 178.326 752.179 178.682 753.588 178.682C754.361 178.682 755.103 178.576 755.815 178.364C756.527 178.152 757.175 177.837 757.759 177.42C758.349 176.996 758.849 176.477 759.259 175.864C759.675 175.242 759.967 174.53 760.134 173.727H762.952C762.74 174.917 762.353 175.981 761.793 176.92C761.232 177.86 760.535 178.659 759.702 179.318C758.868 179.97 757.933 180.466 756.895 180.807C755.865 181.148 754.762 181.318 753.588 181.318C751.603 181.318 749.838 180.833 748.293 179.864C746.747 178.894 745.531 177.515 744.645 175.727C743.759 173.939 743.315 171.818 743.315 169.364C743.315 166.909 743.759 164.788 744.645 163C745.531 161.212 746.747 159.833 748.293 158.864C749.838 157.894 751.603 157.409 753.588 157.409C754.762 157.409 755.865 157.58 756.895 157.92C757.933 158.261 758.868 158.761 759.702 159.42C760.535 160.072 761.232 160.867 761.793 161.807C762.353 162.739 762.74 163.803 762.952 165ZM767.506 181V157.727H781.551V160.227H770.324V168.091H780.824V170.591H770.324V178.5H781.733V181H767.506Z" fill="#007BFF"/>
<path d="M149.545 121.227V118.727H167V121.227H159.682V142H156.864V121.227H149.545ZM169.173 142V124.545H171.764V127.182H171.946C172.264 126.318 172.84 125.617 173.673 125.08C174.507 124.542 175.446 124.273 176.491 124.273C176.688 124.273 176.935 124.277 177.23 124.284C177.526 124.292 177.749 124.303 177.901 124.318V127.045C177.81 127.023 177.601 126.989 177.276 126.943C176.957 126.89 176.62 126.864 176.264 126.864C175.416 126.864 174.658 127.042 173.991 127.398C173.332 127.746 172.81 128.231 172.423 128.852C172.045 129.466 171.855 130.167 171.855 130.955V142H169.173ZM186.216 142.409C185.11 142.409 184.106 142.201 183.205 141.784C182.303 141.36 181.587 140.75 181.057 139.955C180.527 139.152 180.261 138.182 180.261 137.045C180.261 136.045 180.458 135.235 180.852 134.614C181.246 133.985 181.773 133.492 182.432 133.136C183.091 132.78 183.818 132.515 184.614 132.341C185.417 132.159 186.223 132.015 187.034 131.909C188.095 131.773 188.955 131.67 189.614 131.602C190.28 131.527 190.765 131.402 191.068 131.227C191.379 131.053 191.534 130.75 191.534 130.318V130.227C191.534 129.106 191.227 128.235 190.614 127.614C190.008 126.992 189.087 126.682 187.852 126.682C186.572 126.682 185.568 126.962 184.841 127.523C184.114 128.083 183.602 128.682 183.307 129.318L180.761 128.409C181.216 127.348 181.822 126.523 182.58 125.932C183.345 125.333 184.178 124.917 185.08 124.682C185.989 124.439 186.883 124.318 187.761 124.318C188.322 124.318 188.966 124.386 189.693 124.523C190.428 124.652 191.136 124.92 191.818 125.33C192.508 125.739 193.08 126.356 193.534 127.182C193.989 128.008 194.216 129.114 194.216 130.5V142H191.534V139.636H191.398C191.216 140.015 190.913 140.42 190.489 140.852C190.064 141.284 189.5 141.652 188.795 141.955C188.091 142.258 187.231 142.409 186.216 142.409ZM186.625 140C187.686 140 188.58 139.792 189.307 139.375C190.042 138.958 190.595 138.42 190.966 137.761C191.345 137.102 191.534 136.409 191.534 135.682V133.227C191.42 133.364 191.17 133.489 190.784 133.602C190.405 133.708 189.966 133.803 189.466 133.886C188.973 133.962 188.492 134.03 188.023 134.091C187.561 134.144 187.186 134.189 186.898 134.227C186.201 134.318 185.549 134.466 184.943 134.67C184.345 134.867 183.86 135.167 183.489 135.568C183.125 135.962 182.943 136.5 182.943 137.182C182.943 138.114 183.288 138.818 183.977 139.295C184.674 139.765 185.557 140 186.625 140ZM206.202 142.364C204.565 142.364 203.156 141.977 201.974 141.205C200.793 140.432 199.884 139.367 199.247 138.011C198.611 136.655 198.293 135.106 198.293 133.364C198.293 131.591 198.618 130.027 199.27 128.67C199.929 127.307 200.846 126.242 202.02 125.477C203.202 124.705 204.58 124.318 206.156 124.318C207.384 124.318 208.49 124.545 209.474 125C210.459 125.455 211.266 126.091 211.895 126.909C212.524 127.727 212.914 128.682 213.065 129.773H210.384C210.179 128.977 209.724 128.273 209.02 127.659C208.323 127.038 207.384 126.727 206.202 126.727C205.156 126.727 204.24 127 203.452 127.545C202.671 128.083 202.062 128.845 201.622 129.83C201.19 130.807 200.974 131.955 200.974 133.273C200.974 134.621 201.187 135.795 201.611 136.795C202.043 137.795 202.649 138.572 203.429 139.125C204.217 139.678 205.141 139.955 206.202 139.955C206.899 139.955 207.531 139.833 208.099 139.591C208.668 139.348 209.149 139 209.543 138.545C209.937 138.091 210.217 137.545 210.384 136.909H213.065C212.914 137.939 212.539 138.867 211.94 139.693C211.349 140.511 210.565 141.163 209.588 141.648C208.618 142.125 207.49 142.364 206.202 142.364ZM224.304 142.364C222.622 142.364 221.171 141.992 219.952 141.25C218.74 140.5 217.804 139.455 217.145 138.114C216.493 136.765 216.168 135.197 216.168 133.409C216.168 131.621 216.493 130.045 217.145 128.682C217.804 127.311 218.721 126.242 219.895 125.477C221.077 124.705 222.455 124.318 224.031 124.318C224.94 124.318 225.838 124.47 226.724 124.773C227.611 125.076 228.418 125.568 229.145 126.25C229.872 126.924 230.452 127.818 230.884 128.932C231.315 130.045 231.531 131.417 231.531 133.045V134.182H218.077V131.864H228.804C228.804 130.879 228.607 130 228.213 129.227C227.827 128.455 227.274 127.845 226.554 127.398C225.842 126.951 225.001 126.727 224.031 126.727C222.963 126.727 222.039 126.992 221.259 127.523C220.486 128.045 219.891 128.727 219.474 129.568C219.058 130.409 218.849 131.311 218.849 132.273V133.818C218.849 135.136 219.077 136.254 219.531 137.17C219.993 138.08 220.634 138.773 221.452 139.25C222.27 139.72 223.221 139.955 224.304 139.955C225.009 139.955 225.645 139.856 226.213 139.659C226.789 139.455 227.285 139.152 227.702 138.75C228.118 138.341 228.44 137.833 228.668 137.227L231.259 137.955C230.986 138.833 230.527 139.606 229.884 140.273C229.24 140.932 228.444 141.447 227.497 141.818C226.55 142.182 225.486 142.364 224.304 142.364ZM247.293 118.727V142H244.611V118.727H247.293ZM259.523 142.364C257.841 142.364 256.39 141.992 255.17 141.25C253.958 140.5 253.023 139.455 252.364 138.114C251.712 136.765 251.386 135.197 251.386 133.409C251.386 131.621 251.712 130.045 252.364 128.682C253.023 127.311 253.939 126.242 255.114 125.477C256.295 124.705 257.674 124.318 259.25 124.318C260.159 124.318 261.057 124.47 261.943 124.773C262.83 125.076 263.636 125.568 264.364 126.25C265.091 126.924 265.67 127.818 266.102 128.932C266.534 130.045 266.75 131.417 266.75 133.045V134.182H253.295V131.864H264.023C264.023 130.879 263.826 130 263.432 129.227C263.045 128.455 262.492 127.845 261.773 127.398C261.061 126.951 260.22 126.727 259.25 126.727C258.182 126.727 257.258 126.992 256.477 127.523C255.705 128.045 255.11 128.727 254.693 129.568C254.277 130.409 254.068 131.311 254.068 132.273V133.818C254.068 135.136 254.295 136.254 254.75 137.17C255.212 138.08 255.852 138.773 256.67 139.25C257.489 139.72 258.439 139.955 259.523 139.955C260.227 139.955 260.864 139.856 261.432 139.659C262.008 139.455 262.504 139.152 262.92 138.75C263.337 138.341 263.659 137.833 263.886 137.227L266.477 137.955C266.205 138.833 265.746 139.606 265.102 140.273C264.458 140.932 263.663 141.447 262.716 141.818C261.769 142.182 260.705 142.364 259.523 142.364ZM283.193 128.455L280.784 129.136C280.633 128.735 280.409 128.345 280.114 127.966C279.826 127.58 279.432 127.261 278.932 127.011C278.432 126.761 277.792 126.636 277.011 126.636C275.943 126.636 275.053 126.883 274.341 127.375C273.636 127.86 273.284 128.477 273.284 129.227C273.284 129.894 273.527 130.42 274.011 130.807C274.496 131.193 275.254 131.515 276.284 131.773L278.875 132.409C280.436 132.788 281.598 133.367 282.364 134.148C283.129 134.92 283.511 135.917 283.511 137.136C283.511 138.136 283.223 139.03 282.648 139.818C282.08 140.606 281.284 141.227 280.261 141.682C279.239 142.136 278.049 142.364 276.693 142.364C274.913 142.364 273.439 141.977 272.273 141.205C271.106 140.432 270.367 139.303 270.057 137.818L272.602 137.182C272.845 138.121 273.303 138.826 273.977 139.295C274.659 139.765 275.549 140 276.648 140C277.898 140 278.89 139.735 279.625 139.205C280.367 138.667 280.739 138.023 280.739 137.273C280.739 136.667 280.527 136.159 280.102 135.75C279.678 135.333 279.027 135.023 278.148 134.818L275.239 134.136C273.64 133.758 272.466 133.17 271.716 132.375C270.973 131.572 270.602 130.568 270.602 129.364C270.602 128.379 270.879 127.508 271.432 126.75C271.992 125.992 272.754 125.398 273.716 124.966C274.686 124.534 275.784 124.318 277.011 124.318C278.739 124.318 280.095 124.697 281.08 125.455C282.072 126.212 282.777 127.212 283.193 128.455ZM299.912 128.455L297.503 129.136C297.351 128.735 297.128 128.345 296.832 127.966C296.545 127.58 296.151 127.261 295.651 127.011C295.151 126.761 294.51 126.636 293.73 126.636C292.662 126.636 291.772 126.883 291.06 127.375C290.355 127.86 290.003 128.477 290.003 129.227C290.003 129.894 290.245 130.42 290.73 130.807C291.215 131.193 291.973 131.515 293.003 131.773L295.594 132.409C297.154 132.788 298.317 133.367 299.082 134.148C299.848 134.92 300.23 135.917 300.23 137.136C300.23 138.136 299.942 139.03 299.366 139.818C298.798 140.606 298.003 141.227 296.98 141.682C295.957 142.136 294.768 142.364 293.412 142.364C291.632 142.364 290.158 141.977 288.991 141.205C287.825 140.432 287.086 139.303 286.776 137.818L289.321 137.182C289.563 138.121 290.022 138.826 290.696 139.295C291.378 139.765 292.268 140 293.366 140C294.616 140 295.609 139.735 296.344 139.205C297.086 138.667 297.457 138.023 297.457 137.273C297.457 136.667 297.245 136.159 296.821 135.75C296.397 135.333 295.745 135.023 294.866 134.818L291.957 134.136C290.359 133.758 289.185 133.17 288.435 132.375C287.692 131.572 287.321 130.568 287.321 129.364C287.321 128.379 287.598 127.508 288.151 126.75C288.711 125.992 289.473 125.398 290.435 124.966C291.404 124.534 292.503 124.318 293.73 124.318C295.457 124.318 296.813 124.697 297.798 125.455C298.791 126.212 299.495 127.212 299.912 128.455ZM308.267 138.818L308.085 140.045C307.956 140.909 307.759 141.833 307.494 142.818C307.237 143.803 306.968 144.731 306.688 145.602C306.407 146.473 306.176 147.167 305.994 147.682H303.949C304.047 147.197 304.176 146.557 304.335 145.761C304.494 144.966 304.653 144.076 304.812 143.091C304.979 142.114 305.116 141.114 305.222 140.091L305.358 138.818H308.267ZM329.827 124.545V126.818H320.781V124.545H329.827ZM323.418 120.364H326.099V137C326.099 137.758 326.209 138.326 326.429 138.705C326.656 139.076 326.944 139.326 327.293 139.455C327.649 139.576 328.024 139.636 328.418 139.636C328.713 139.636 328.955 139.621 329.145 139.591C329.334 139.553 329.486 139.523 329.599 139.5L330.145 141.909C329.963 141.977 329.709 142.045 329.384 142.114C329.058 142.189 328.645 142.227 328.145 142.227C327.387 142.227 326.645 142.064 325.918 141.739C325.198 141.413 324.599 140.917 324.122 140.25C323.652 139.583 323.418 138.742 323.418 137.727V120.364ZM335.588 148.545C335.134 148.545 334.728 148.508 334.372 148.432C334.016 148.364 333.77 148.295 333.634 148.227L334.315 145.864C334.967 146.03 335.543 146.091 336.043 146.045C336.543 146 336.986 145.777 337.372 145.375C337.766 144.981 338.126 144.341 338.452 143.455L338.952 142.091L332.497 124.545H335.406L340.224 138.455H340.406L345.224 124.545H348.134L340.724 144.545C340.391 145.447 339.978 146.193 339.486 146.784C338.993 147.383 338.421 147.826 337.77 148.114C337.126 148.402 336.399 148.545 335.588 148.545ZM351.673 148.545V124.545H354.264V127.318H354.582C354.779 127.015 355.052 126.629 355.401 126.159C355.757 125.682 356.264 125.258 356.923 124.886C357.59 124.508 358.491 124.318 359.628 124.318C361.098 124.318 362.393 124.686 363.514 125.42C364.635 126.155 365.51 127.197 366.139 128.545C366.768 129.894 367.082 131.485 367.082 133.318C367.082 135.167 366.768 136.769 366.139 138.125C365.51 139.473 364.639 140.519 363.526 141.261C362.412 141.996 361.128 142.364 359.673 142.364C358.552 142.364 357.654 142.178 356.98 141.807C356.306 141.428 355.787 141 355.423 140.523C355.06 140.038 354.779 139.636 354.582 139.318H354.355V148.545H351.673ZM354.31 133.273C354.31 134.591 354.503 135.754 354.889 136.761C355.276 137.761 355.84 138.545 356.582 139.114C357.325 139.674 358.234 139.955 359.31 139.955C360.431 139.955 361.366 139.659 362.116 139.068C362.874 138.47 363.442 137.667 363.821 136.659C364.207 135.644 364.401 134.515 364.401 133.273C364.401 132.045 364.211 130.939 363.832 129.955C363.461 128.962 362.897 128.178 362.139 127.602C361.389 127.019 360.446 126.727 359.31 126.727C358.219 126.727 357.302 127.004 356.56 127.557C355.817 128.102 355.257 128.867 354.878 129.852C354.499 130.83 354.31 131.97 354.31 133.273ZM378.491 142.364C376.81 142.364 375.359 141.992 374.139 141.25C372.927 140.5 371.991 139.455 371.332 138.114C370.681 136.765 370.355 135.197 370.355 133.409C370.355 131.621 370.681 130.045 371.332 128.682C371.991 127.311 372.908 126.242 374.082 125.477C375.264 124.705 376.643 124.318 378.219 124.318C379.128 124.318 380.026 124.47 380.912 124.773C381.798 125.076 382.605 125.568 383.332 126.25C384.06 126.924 384.639 127.818 385.071 128.932C385.503 130.045 385.719 131.417 385.719 133.045V134.182H372.264V131.864H382.991C382.991 130.879 382.795 130 382.401 129.227C382.014 128.455 381.461 127.845 380.741 127.398C380.029 126.951 379.188 126.727 378.219 126.727C377.151 126.727 376.226 126.992 375.446 127.523C374.673 128.045 374.079 128.727 373.662 129.568C373.245 130.409 373.037 131.311 373.037 132.273V133.818C373.037 135.136 373.264 136.254 373.719 137.17C374.181 138.08 374.821 138.773 375.639 139.25C376.457 139.72 377.408 139.955 378.491 139.955C379.196 139.955 379.832 139.856 380.401 139.659C380.976 139.455 381.473 139.152 381.889 138.75C382.306 138.341 382.628 137.833 382.855 137.227L385.446 137.955C385.173 138.833 384.715 139.606 384.071 140.273C383.427 140.932 382.632 141.447 381.685 141.818C380.738 142.182 379.673 142.364 378.491 142.364ZM401.48 118.727V142H398.798V118.727H401.48ZM413.71 142.364C412.028 142.364 410.578 141.992 409.358 141.25C408.146 140.5 407.21 139.455 406.551 138.114C405.9 136.765 405.574 135.197 405.574 133.409C405.574 131.621 405.9 130.045 406.551 128.682C407.21 127.311 408.127 126.242 409.301 125.477C410.483 124.705 411.862 124.318 413.438 124.318C414.347 124.318 415.244 124.47 416.131 124.773C417.017 125.076 417.824 125.568 418.551 126.25C419.278 126.924 419.858 127.818 420.29 128.932C420.722 130.045 420.938 131.417 420.938 133.045V134.182H407.483V131.864H418.21C418.21 130.879 418.013 130 417.619 129.227C417.233 128.455 416.68 127.845 415.96 127.398C415.248 126.951 414.407 126.727 413.438 126.727C412.369 126.727 411.445 126.992 410.665 127.523C409.892 128.045 409.297 128.727 408.881 129.568C408.464 130.409 408.256 131.311 408.256 132.273V133.818C408.256 135.136 408.483 136.254 408.938 137.17C409.4 138.08 410.04 138.773 410.858 139.25C411.676 139.72 412.627 139.955 413.71 139.955C414.415 139.955 415.051 139.856 415.619 139.659C416.195 139.455 416.691 139.152 417.108 138.75C417.525 138.341 417.847 137.833 418.074 137.227L420.665 137.955C420.392 138.833 419.934 139.606 419.29 140.273C418.646 140.932 417.85 141.447 416.903 141.818C415.956 142.182 414.892 142.364 413.71 142.364ZM437.381 128.455L434.972 129.136C434.82 128.735 434.597 128.345 434.301 127.966C434.013 127.58 433.619 127.261 433.119 127.011C432.619 126.761 431.979 126.636 431.199 126.636C430.131 126.636 429.241 126.883 428.528 127.375C427.824 127.86 427.472 128.477 427.472 129.227C427.472 129.894 427.714 130.42 428.199 130.807C428.684 131.193 429.441 131.515 430.472 131.773L433.062 132.409C434.623 132.788 435.786 133.367 436.551 134.148C437.316 134.92 437.699 135.917 437.699 137.136C437.699 138.136 437.411 139.03 436.835 139.818C436.267 140.606 435.472 141.227 434.449 141.682C433.426 142.136 432.237 142.364 430.881 142.364C429.1 142.364 427.627 141.977 426.46 141.205C425.294 140.432 424.555 139.303 424.244 137.818L426.79 137.182C427.032 138.121 427.491 138.826 428.165 139.295C428.847 139.765 429.737 140 430.835 140C432.085 140 433.078 139.735 433.812 139.205C434.555 138.667 434.926 138.023 434.926 137.273C434.926 136.667 434.714 136.159 434.29 135.75C433.866 135.333 433.214 135.023 432.335 134.818L429.426 134.136C427.828 133.758 426.653 133.17 425.903 132.375C425.161 131.572 424.79 130.568 424.79 129.364C424.79 128.379 425.066 127.508 425.619 126.75C426.18 125.992 426.941 125.398 427.903 124.966C428.873 124.534 429.972 124.318 431.199 124.318C432.926 124.318 434.282 124.697 435.267 125.455C436.259 126.212 436.964 127.212 437.381 128.455ZM454.099 128.455L451.69 129.136C451.539 128.735 451.315 128.345 451.02 127.966C450.732 127.58 450.338 127.261 449.838 127.011C449.338 126.761 448.698 126.636 447.918 126.636C446.849 126.636 445.959 126.883 445.247 127.375C444.543 127.86 444.19 128.477 444.19 129.227C444.19 129.894 444.433 130.42 444.918 130.807C445.402 131.193 446.16 131.515 447.19 131.773L449.781 132.409C451.342 132.788 452.505 133.367 453.27 134.148C454.035 134.92 454.418 135.917 454.418 137.136C454.418 138.136 454.13 139.03 453.554 139.818C452.986 140.606 452.19 141.227 451.168 141.682C450.145 142.136 448.955 142.364 447.599 142.364C445.819 142.364 444.346 141.977 443.179 141.205C442.012 140.432 441.274 139.303 440.963 137.818L443.509 137.182C443.751 138.121 444.209 138.826 444.884 139.295C445.565 139.765 446.455 140 447.554 140C448.804 140 449.796 139.735 450.531 139.205C451.274 138.667 451.645 138.023 451.645 137.273C451.645 136.667 451.433 136.159 451.009 135.75C450.584 135.333 449.933 135.023 449.054 134.818L446.145 134.136C444.546 133.758 443.372 133.17 442.622 132.375C441.88 131.572 441.509 130.568 441.509 129.364C441.509 128.379 441.785 127.508 442.338 126.75C442.899 125.992 443.66 125.398 444.622 124.966C445.592 124.534 446.69 124.318 447.918 124.318C449.645 124.318 451.001 124.697 451.986 125.455C452.978 126.212 453.683 127.212 454.099 128.455ZM460.409 142.182C459.848 142.182 459.367 141.981 458.966 141.58C458.564 141.178 458.364 140.697 458.364 140.136C458.364 139.576 458.564 139.095 458.966 138.693C459.367 138.292 459.848 138.091 460.409 138.091C460.97 138.091 461.451 138.292 461.852 138.693C462.254 139.095 462.455 139.576 462.455 140.136C462.455 140.508 462.36 140.848 462.17 141.159C461.989 141.47 461.742 141.72 461.432 141.909C461.129 142.091 460.788 142.182 460.409 142.182ZM559.608 163.545V165.818H550.562V163.545H559.608ZM553.199 159.364H555.881V176C555.881 176.758 555.991 177.326 556.21 177.705C556.438 178.076 556.725 178.326 557.074 178.455C557.43 178.576 557.805 178.636 558.199 178.636C558.494 178.636 558.737 178.621 558.926 178.591C559.116 178.553 559.267 178.523 559.381 178.5L559.926 180.909C559.744 180.977 559.491 181.045 559.165 181.114C558.839 181.189 558.426 181.227 557.926 181.227C557.169 181.227 556.426 181.064 555.699 180.739C554.979 180.413 554.381 179.917 553.903 179.25C553.434 178.583 553.199 177.742 553.199 176.727V159.364ZM570.773 181.364C569.091 181.364 567.64 180.992 566.42 180.25C565.208 179.5 564.273 178.455 563.614 177.114C562.962 175.765 562.636 174.197 562.636 172.409C562.636 170.621 562.962 169.045 563.614 167.682C564.273 166.311 565.189 165.242 566.364 164.477C567.545 163.705 568.924 163.318 570.5 163.318C571.409 163.318 572.307 163.47 573.193 163.773C574.08 164.076 574.886 164.568 575.614 165.25C576.341 165.924 576.92 166.818 577.352 167.932C577.784 169.045 578 170.417 578 172.045V173.182H564.545V170.864H575.273C575.273 169.879 575.076 169 574.682 168.227C574.295 167.455 573.742 166.845 573.023 166.398C572.311 165.951 571.47 165.727 570.5 165.727C569.432 165.727 568.508 165.992 567.727 166.523C566.955 167.045 566.36 167.727 565.943 168.568C565.527 169.409 565.318 170.311 565.318 171.273V172.818C565.318 174.136 565.545 175.254 566 176.17C566.462 177.08 567.102 177.773 567.92 178.25C568.739 178.72 569.689 178.955 570.773 178.955C571.477 178.955 572.114 178.856 572.682 178.659C573.258 178.455 573.754 178.152 574.17 177.75C574.587 177.341 574.909 176.833 575.136 176.227L577.727 176.955C577.455 177.833 576.996 178.606 576.352 179.273C575.708 179.932 574.913 180.447 573.966 180.818C573.019 181.182 571.955 181.364 570.773 181.364ZM584.761 157.727V181H582.08V157.727H584.761ZM592.355 157.727V181H589.673V157.727H592.355ZM597.267 181V163.545H599.949V181H597.267ZM598.631 160.636C598.108 160.636 597.657 160.458 597.278 160.102C596.907 159.746 596.722 159.318 596.722 158.818C596.722 158.318 596.907 157.89 597.278 157.534C597.657 157.178 598.108 157 598.631 157C599.153 157 599.6 157.178 599.972 157.534C600.35 157.89 600.54 158.318 600.54 158.818C600.54 159.318 600.35 159.746 599.972 160.102C599.6 160.458 599.153 160.636 598.631 160.636ZM611.906 187.909C610.611 187.909 609.497 187.742 608.565 187.409C607.634 187.083 606.857 186.652 606.236 186.114C605.622 185.583 605.134 185.015 604.77 184.409L606.906 182.909C607.149 183.227 607.455 183.591 607.827 184C608.198 184.417 608.705 184.777 609.349 185.08C610.001 185.39 610.853 185.545 611.906 185.545C613.315 185.545 614.478 185.205 615.395 184.523C616.312 183.841 616.77 182.773 616.77 181.318V177.773H616.543C616.346 178.091 616.065 178.485 615.702 178.955C615.346 179.417 614.83 179.83 614.156 180.193C613.49 180.549 612.588 180.727 611.452 180.727C610.043 180.727 608.777 180.394 607.656 179.727C606.543 179.061 605.66 178.091 605.009 176.818C604.365 175.545 604.043 174 604.043 172.182C604.043 170.394 604.357 168.837 604.986 167.511C605.615 166.178 606.49 165.148 607.611 164.42C608.732 163.686 610.027 163.318 611.497 163.318C612.634 163.318 613.535 163.508 614.202 163.886C614.876 164.258 615.391 164.682 615.747 165.159C616.111 165.629 616.391 166.015 616.588 166.318H616.861V163.545H619.452V181.5C619.452 183 619.111 184.22 618.429 185.159C617.755 186.106 616.846 186.799 615.702 187.239C614.565 187.686 613.3 187.909 611.906 187.909ZM611.815 178.318C612.891 178.318 613.8 178.072 614.543 177.58C615.285 177.087 615.849 176.379 616.236 175.455C616.622 174.53 616.815 173.424 616.815 172.136C616.815 170.879 616.626 169.769 616.247 168.807C615.868 167.845 615.308 167.091 614.565 166.545C613.823 166 612.906 165.727 611.815 165.727C610.679 165.727 609.732 166.015 608.974 166.591C608.224 167.167 607.66 167.939 607.281 168.909C606.91 169.879 606.724 170.955 606.724 172.136C606.724 173.348 606.914 174.42 607.293 175.352C607.679 176.277 608.247 177.004 608.997 177.534C609.755 178.057 610.694 178.318 611.815 178.318ZM631.679 181.364C629.997 181.364 628.546 180.992 627.327 180.25C626.115 179.5 625.179 178.455 624.52 177.114C623.868 175.765 623.543 174.197 623.543 172.409C623.543 170.621 623.868 169.045 624.52 167.682C625.179 166.311 626.096 165.242 627.27 164.477C628.452 163.705 629.83 163.318 631.406 163.318C632.315 163.318 633.213 163.47 634.099 163.773C634.986 164.076 635.793 164.568 636.52 165.25C637.247 165.924 637.827 166.818 638.259 167.932C638.69 169.045 638.906 170.417 638.906 172.045V173.182H625.452V170.864H636.179C636.179 169.879 635.982 169 635.588 168.227C635.202 167.455 634.649 166.845 633.929 166.398C633.217 165.951 632.376 165.727 631.406 165.727C630.338 165.727 629.414 165.992 628.634 166.523C627.861 167.045 627.266 167.727 626.849 168.568C626.433 169.409 626.224 170.311 626.224 171.273V172.818C626.224 174.136 626.452 175.254 626.906 176.17C627.368 177.08 628.009 177.773 628.827 178.25C629.645 178.72 630.596 178.955 631.679 178.955C632.384 178.955 633.02 178.856 633.588 178.659C634.164 178.455 634.66 178.152 635.077 177.75C635.493 177.341 635.815 176.833 636.043 176.227L638.634 176.955C638.361 177.833 637.902 178.606 637.259 179.273C636.615 179.932 635.819 180.447 634.872 180.818C633.925 181.182 632.861 181.364 631.679 181.364ZM645.668 170.5V181H642.986V163.545H645.577V166.273H645.804C646.213 165.386 646.834 164.674 647.668 164.136C648.501 163.591 649.577 163.318 650.895 163.318C652.077 163.318 653.111 163.561 653.997 164.045C654.884 164.523 655.573 165.25 656.065 166.227C656.558 167.197 656.804 168.424 656.804 169.909V181H654.122V170.091C654.122 168.72 653.766 167.652 653.054 166.886C652.342 166.114 651.365 165.727 650.122 165.727C649.266 165.727 648.501 165.913 647.827 166.284C647.16 166.655 646.634 167.197 646.247 167.909C645.861 168.621 645.668 169.485 645.668 170.5ZM669.295 163.545V165.818H660.25V163.545H669.295ZM662.886 159.364H665.568V176C665.568 176.758 665.678 177.326 665.898 177.705C666.125 178.076 666.413 178.326 666.761 178.455C667.117 178.576 667.492 178.636 667.886 178.636C668.182 178.636 668.424 178.621 668.614 178.591C668.803 178.553 668.955 178.523 669.068 178.5L669.614 180.909C669.432 180.977 669.178 181.045 668.852 181.114C668.527 181.189 668.114 181.227 667.614 181.227C666.856 181.227 666.114 181.064 665.386 180.739C664.667 180.413 664.068 179.917 663.591 179.25C663.121 178.583 662.886 177.742 662.886 176.727V159.364ZM791.403 181.409C790.297 181.409 789.294 181.201 788.392 180.784C787.491 180.36 786.775 179.75 786.244 178.955C785.714 178.152 785.449 177.182 785.449 176.045C785.449 175.045 785.646 174.235 786.04 173.614C786.434 172.985 786.96 172.492 787.619 172.136C788.278 171.78 789.006 171.515 789.801 171.341C790.604 171.159 791.411 171.015 792.222 170.909C793.282 170.773 794.142 170.67 794.801 170.602C795.468 170.527 795.953 170.402 796.256 170.227C796.566 170.053 796.722 169.75 796.722 169.318V169.227C796.722 168.106 796.415 167.235 795.801 166.614C795.195 165.992 794.275 165.682 793.04 165.682C791.759 165.682 790.756 165.962 790.028 166.523C789.301 167.083 788.79 167.682 788.494 168.318L785.949 167.409C786.403 166.348 787.009 165.523 787.767 164.932C788.532 164.333 789.366 163.917 790.267 163.682C791.176 163.439 792.07 163.318 792.949 163.318C793.509 163.318 794.153 163.386 794.881 163.523C795.616 163.652 796.324 163.92 797.006 164.33C797.695 164.739 798.267 165.356 798.722 166.182C799.176 167.008 799.403 168.114 799.403 169.5V181H796.722V178.636H796.585C796.403 179.015 796.1 179.42 795.676 179.852C795.252 180.284 794.688 180.652 793.983 180.955C793.278 181.258 792.419 181.409 791.403 181.409ZM791.812 179C792.873 179 793.767 178.792 794.494 178.375C795.229 177.958 795.782 177.42 796.153 176.761C796.532 176.102 796.722 175.409 796.722 174.682V172.227C796.608 172.364 796.358 172.489 795.972 172.602C795.593 172.708 795.153 172.803 794.653 172.886C794.161 172.962 793.68 173.03 793.21 173.091C792.748 173.144 792.373 173.189 792.085 173.227C791.388 173.318 790.737 173.466 790.131 173.67C789.532 173.867 789.047 174.167 788.676 174.568C788.313 174.962 788.131 175.5 788.131 176.182C788.131 177.114 788.475 177.818 789.165 178.295C789.862 178.765 790.744 179 791.812 179ZM804.662 181V157.727H807.344V166.318H807.571C807.768 166.015 808.041 165.629 808.389 165.159C808.745 164.682 809.253 164.258 809.912 163.886C810.579 163.508 811.48 163.318 812.616 163.318C814.086 163.318 815.382 163.686 816.503 164.42C817.624 165.155 818.499 166.197 819.128 167.545C819.757 168.894 820.071 170.485 820.071 172.318C820.071 174.167 819.757 175.769 819.128 177.125C818.499 178.473 817.628 179.519 816.514 180.261C815.401 180.996 814.116 181.364 812.662 181.364C811.541 181.364 810.643 181.178 809.969 180.807C809.295 180.428 808.776 180 808.412 179.523C808.048 179.038 807.768 178.636 807.571 178.318H807.253V181H804.662ZM807.298 172.273C807.298 173.591 807.491 174.754 807.878 175.761C808.264 176.761 808.829 177.545 809.571 178.114C810.313 178.674 811.223 178.955 812.298 178.955C813.42 178.955 814.355 178.659 815.105 178.068C815.863 177.47 816.431 176.667 816.81 175.659C817.196 174.644 817.389 173.515 817.389 172.273C817.389 171.045 817.2 169.939 816.821 168.955C816.45 167.962 815.885 167.178 815.128 166.602C814.378 166.019 813.435 165.727 812.298 165.727C811.207 165.727 810.291 166.004 809.548 166.557C808.806 167.102 808.245 167.867 807.866 168.852C807.488 169.83 807.298 170.97 807.298 172.273ZM824.173 181V163.545H826.855V181H824.173ZM825.537 160.636C825.014 160.636 824.563 160.458 824.185 160.102C823.813 159.746 823.628 159.318 823.628 158.818C823.628 158.318 823.813 157.89 824.185 157.534C824.563 157.178 825.014 157 825.537 157C826.06 157 826.507 157.178 826.878 157.534C827.257 157.89 827.446 158.318 827.446 158.818C827.446 159.318 827.257 159.746 826.878 160.102C826.507 160.458 826.06 160.636 825.537 160.636ZM834.449 157.727V181H831.767V157.727H834.449ZM839.361 181V163.545H842.043V181H839.361ZM840.724 160.636C840.202 160.636 839.751 160.458 839.372 160.102C839.001 159.746 838.815 159.318 838.815 158.818C838.815 158.318 839.001 157.89 839.372 157.534C839.751 157.178 840.202 157 840.724 157C841.247 157 841.694 157.178 842.065 157.534C842.444 157.89 842.634 158.318 842.634 158.818C842.634 159.318 842.444 159.746 842.065 160.102C841.694 160.458 841.247 160.636 840.724 160.636ZM854.545 163.545V165.818H845.5V163.545H854.545ZM848.136 159.364H850.818V176C850.818 176.758 850.928 177.326 851.148 177.705C851.375 178.076 851.663 178.326 852.011 178.455C852.367 178.576 852.742 178.636 853.136 178.636C853.432 178.636 853.674 178.621 853.864 178.591C854.053 178.553 854.205 178.523 854.318 178.5L854.864 180.909C854.682 180.977 854.428 181.045 854.102 181.114C853.777 181.189 853.364 181.227 852.864 181.227C852.106 181.227 851.364 181.064 850.636 180.739C849.917 180.413 849.318 179.917 848.841 179.25C848.371 178.583 848.136 177.742 848.136 176.727V159.364ZM860.307 187.545C859.852 187.545 859.447 187.508 859.091 187.432C858.735 187.364 858.489 187.295 858.352 187.227L859.034 184.864C859.686 185.03 860.261 185.091 860.761 185.045C861.261 185 861.705 184.777 862.091 184.375C862.485 183.981 862.845 183.341 863.17 182.455L863.67 181.091L857.216 163.545H860.125L864.943 177.455H865.125L869.943 163.545H872.852L865.443 183.545C865.11 184.447 864.697 185.193 864.205 185.784C863.712 186.383 863.14 186.826 862.489 187.114C861.845 187.402 861.117 187.545 860.307 187.545Z" fill="black"/>
</g>
</svg>
