<svg width="804" height="195" viewBox="0 0 804 195" fill="none" xmlns="http://www.w3.org/2000/svg">
<g opacity="0.9">
<path d="M43.9091 23.1818V93H35.4545V23.1818H43.9091ZM116.224 23.1818V93H108.043L69.9972 38.1818H69.3153V93H60.8608V23.1818H69.0426L107.224 78.1364H107.906V23.1818H116.224ZM129.324 30.6818V23.1818H181.688V30.6818H159.733V93H151.278V30.6818H129.324ZM194.736 93V23.1818H218.327C223.781 23.1818 228.259 24.1136 231.759 25.9773C235.259 27.8182 237.849 30.3523 239.531 33.5795C241.213 36.8068 242.054 40.4773 242.054 44.5909C242.054 48.7045 241.213 52.3523 239.531 55.5341C237.849 58.7159 235.27 61.2159 231.793 63.0341C228.315 64.8295 223.872 65.7273 218.463 65.7273H199.372V58.0909H218.19C221.918 58.0909 224.918 57.5455 227.19 56.4545C229.486 55.3636 231.145 53.8182 232.168 51.8182C233.213 49.7955 233.736 47.3864 233.736 44.5909C233.736 41.7955 233.213 39.3523 232.168 37.2614C231.122 35.1705 229.452 33.5568 227.156 32.4205C224.861 31.2614 221.827 30.6818 218.054 30.6818H203.19V93H194.736ZM227.599 61.6364L244.781 93H234.963L218.054 61.6364H227.599ZM259.006 93H250.142L275.778 23.1818H284.506L310.142 93H301.278L280.415 34.2273H279.869L259.006 93ZM262.278 65.7273H298.006V73.2273H262.278V65.7273ZM373.918 45H365.463C364.963 42.5682 364.088 40.4318 362.838 38.5909C361.611 36.75 360.111 35.2045 358.338 33.9545C356.588 32.6818 354.645 31.7273 352.509 31.0909C350.372 30.4545 348.145 30.1364 345.827 30.1364C341.599 30.1364 337.77 31.2045 334.338 33.3409C330.929 35.4773 328.213 38.625 326.19 42.7841C324.19 46.9432 323.19 52.0455 323.19 58.0909C323.19 64.1364 324.19 69.2386 326.19 73.3977C328.213 77.5568 330.929 80.7045 334.338 82.8409C337.77 84.9773 341.599 86.0455 345.827 86.0455C348.145 86.0455 350.372 85.7273 352.509 85.0909C354.645 84.4545 356.588 83.5114 358.338 82.2614C360.111 80.9886 361.611 79.4318 362.838 77.5909C364.088 75.7273 364.963 73.5909 365.463 71.1818H373.918C373.281 74.75 372.122 77.9432 370.44 80.7614C368.759 83.5795 366.668 85.9773 364.168 87.9545C361.668 89.9091 358.861 91.3977 355.747 92.4205C352.656 93.4432 349.349 93.9545 345.827 93.9545C339.872 93.9545 334.577 92.5 329.94 89.5909C325.304 86.6818 321.656 82.5455 318.997 77.1818C316.338 71.8182 315.009 65.4545 315.009 58.0909C315.009 50.7273 316.338 44.3636 318.997 39C321.656 33.6364 325.304 29.5 329.94 26.5909C334.577 23.6818 339.872 22.2273 345.827 22.2273C349.349 22.2273 352.656 22.7386 355.747 23.7614C358.861 24.7841 361.668 26.2841 364.168 28.2614C366.668 30.2159 368.759 32.6023 370.44 35.4205C372.122 38.2159 373.281 41.4091 373.918 45ZM387.58 93V23.1818H429.716V30.6818H396.034V54.2727H427.534V61.7727H396.034V85.5H430.261V93H387.58ZM437.636 147.727V171H434.818V147.727H437.636ZM461.741 147.727V171H459.014L446.332 152.727H446.105V171H443.287V147.727H446.014L458.741 166.045H458.969V147.727H461.741ZM596.42 150.227V147.727H613.875V150.227H606.557V171H603.739V150.227H596.42ZM618.224 171V147.727H626.088C627.906 147.727 629.399 148.038 630.565 148.659C631.732 149.273 632.596 150.117 633.156 151.193C633.717 152.269 633.997 153.492 633.997 154.864C633.997 156.235 633.717 157.451 633.156 158.511C632.596 159.572 631.736 160.405 630.577 161.011C629.418 161.61 627.937 161.909 626.134 161.909H619.77V159.364H626.043C627.285 159.364 628.285 159.182 629.043 158.818C629.808 158.455 630.361 157.939 630.702 157.273C631.05 156.598 631.224 155.795 631.224 154.864C631.224 153.932 631.05 153.117 630.702 152.42C630.353 151.723 629.796 151.186 629.031 150.807C628.266 150.42 627.255 150.227 625.997 150.227H621.043V171H618.224ZM629.179 160.545L634.906 171H631.634L625.997 160.545H629.179ZM639.648 171H636.693L645.239 147.727H648.148L656.693 171H653.739L646.784 151.409H646.602L639.648 171ZM640.739 161.909H652.648V164.409H640.739V161.909ZM677.952 155H675.134C674.967 154.189 674.675 153.477 674.259 152.864C673.849 152.25 673.349 151.735 672.759 151.318C672.175 150.894 671.527 150.576 670.815 150.364C670.103 150.152 669.361 150.045 668.588 150.045C667.179 150.045 665.902 150.402 664.759 151.114C663.622 151.826 662.717 152.875 662.043 154.261C661.376 155.648 661.043 157.348 661.043 159.364C661.043 161.379 661.376 163.08 662.043 164.466C662.717 165.852 663.622 166.902 664.759 167.614C665.902 168.326 667.179 168.682 668.588 168.682C669.361 168.682 670.103 168.576 670.815 168.364C671.527 168.152 672.175 167.837 672.759 167.42C673.349 166.996 673.849 166.477 674.259 165.864C674.675 165.242 674.967 164.53 675.134 163.727H677.952C677.74 164.917 677.353 165.981 676.793 166.92C676.232 167.86 675.535 168.659 674.702 169.318C673.868 169.97 672.933 170.466 671.895 170.807C670.865 171.148 669.762 171.318 668.588 171.318C666.603 171.318 664.838 170.833 663.293 169.864C661.747 168.894 660.531 167.515 659.645 165.727C658.759 163.939 658.315 161.818 658.315 159.364C658.315 156.909 658.759 154.788 659.645 153C660.531 151.212 661.747 149.833 663.293 148.864C664.838 147.894 666.603 147.409 668.588 147.409C669.762 147.409 670.865 147.58 671.895 147.92C672.933 148.261 673.868 148.761 674.702 149.42C675.535 150.072 676.232 150.867 676.793 151.807C677.353 152.739 677.74 153.803 677.952 155ZM682.506 171V147.727H696.551V150.227H685.324V158.091H695.824V160.591H685.324V168.5H696.733V171H682.506Z" fill="#007BFF"/>
<path d="M64.5455 111.227V108.727H82V111.227H74.6818V132H71.8636V111.227H64.5455ZM84.1733 132V114.545H86.7642V117.182H86.946C87.2642 116.318 87.84 115.617 88.6733 115.08C89.5066 114.542 90.446 114.273 91.4915 114.273C91.6884 114.273 91.9347 114.277 92.2301 114.284C92.5256 114.292 92.7491 114.303 92.9006 114.318V117.045C92.8097 117.023 92.6013 116.989 92.2756 116.943C91.9574 116.89 91.6203 116.864 91.2642 116.864C90.4157 116.864 89.6581 117.042 88.9915 117.398C88.3324 117.746 87.8097 118.231 87.4233 118.852C87.0445 119.466 86.8551 120.167 86.8551 120.955V132H84.1733ZM101.216 132.409C100.11 132.409 99.1061 132.201 98.2045 131.784C97.303 131.36 96.5871 130.75 96.0568 129.955C95.5265 129.152 95.2614 128.182 95.2614 127.045C95.2614 126.045 95.4583 125.235 95.8523 124.614C96.2462 123.985 96.7727 123.492 97.4318 123.136C98.0909 122.78 98.8182 122.515 99.6136 122.341C100.417 122.159 101.223 122.015 102.034 121.909C103.095 121.773 103.955 121.67 104.614 121.602C105.28 121.527 105.765 121.402 106.068 121.227C106.379 121.053 106.534 120.75 106.534 120.318V120.227C106.534 119.106 106.227 118.235 105.614 117.614C105.008 116.992 104.087 116.682 102.852 116.682C101.572 116.682 100.568 116.962 99.8409 117.523C99.1136 118.083 98.6023 118.682 98.3068 119.318L95.7614 118.409C96.2159 117.348 96.822 116.523 97.5795 115.932C98.3447 115.333 99.178 114.917 100.08 114.682C100.989 114.439 101.883 114.318 102.761 114.318C103.322 114.318 103.966 114.386 104.693 114.523C105.428 114.652 106.136 114.92 106.818 115.33C107.508 115.739 108.08 116.356 108.534 117.182C108.989 118.008 109.216 119.114 109.216 120.5V132H106.534V129.636H106.398C106.216 130.015 105.913 130.42 105.489 130.852C105.064 131.284 104.5 131.652 103.795 131.955C103.091 132.258 102.231 132.409 101.216 132.409ZM101.625 130C102.686 130 103.58 129.792 104.307 129.375C105.042 128.958 105.595 128.42 105.966 127.761C106.345 127.102 106.534 126.409 106.534 125.682V123.227C106.42 123.364 106.17 123.489 105.784 123.602C105.405 123.708 104.966 123.803 104.466 123.886C103.973 123.962 103.492 124.03 103.023 124.091C102.561 124.144 102.186 124.189 101.898 124.227C101.201 124.318 100.549 124.466 99.9432 124.67C99.3447 124.867 98.8598 125.167 98.4886 125.568C98.125 125.962 97.9432 126.5 97.9432 127.182C97.9432 128.114 98.2879 128.818 98.9773 129.295C99.6742 129.765 100.557 130 101.625 130ZM121.202 132.364C119.565 132.364 118.156 131.977 116.974 131.205C115.793 130.432 114.884 129.367 114.247 128.011C113.611 126.655 113.293 125.106 113.293 123.364C113.293 121.591 113.618 120.027 114.27 118.67C114.929 117.307 115.846 116.242 117.02 115.477C118.202 114.705 119.58 114.318 121.156 114.318C122.384 114.318 123.49 114.545 124.474 115C125.459 115.455 126.266 116.091 126.895 116.909C127.524 117.727 127.914 118.682 128.065 119.773H125.384C125.179 118.977 124.724 118.273 124.02 117.659C123.323 117.038 122.384 116.727 121.202 116.727C120.156 116.727 119.24 117 118.452 117.545C117.671 118.083 117.062 118.845 116.622 119.83C116.19 120.807 115.974 121.955 115.974 123.273C115.974 124.621 116.187 125.795 116.611 126.795C117.043 127.795 117.649 128.572 118.429 129.125C119.217 129.678 120.141 129.955 121.202 129.955C121.899 129.955 122.531 129.833 123.099 129.591C123.668 129.348 124.149 129 124.543 128.545C124.937 128.091 125.217 127.545 125.384 126.909H128.065C127.914 127.939 127.539 128.867 126.94 129.693C126.349 130.511 125.565 131.163 124.588 131.648C123.618 132.125 122.49 132.364 121.202 132.364ZM139.304 132.364C137.622 132.364 136.171 131.992 134.952 131.25C133.74 130.5 132.804 129.455 132.145 128.114C131.493 126.765 131.168 125.197 131.168 123.409C131.168 121.621 131.493 120.045 132.145 118.682C132.804 117.311 133.721 116.242 134.895 115.477C136.077 114.705 137.455 114.318 139.031 114.318C139.94 114.318 140.838 114.47 141.724 114.773C142.611 115.076 143.418 115.568 144.145 116.25C144.872 116.924 145.452 117.818 145.884 118.932C146.315 120.045 146.531 121.417 146.531 123.045V124.182H133.077V121.864H143.804C143.804 120.879 143.607 120 143.213 119.227C142.827 118.455 142.274 117.845 141.554 117.398C140.842 116.951 140.001 116.727 139.031 116.727C137.963 116.727 137.039 116.992 136.259 117.523C135.486 118.045 134.891 118.727 134.474 119.568C134.058 120.409 133.849 121.311 133.849 122.273V123.818C133.849 125.136 134.077 126.254 134.531 127.17C134.993 128.08 135.634 128.773 136.452 129.25C137.27 129.72 138.221 129.955 139.304 129.955C140.009 129.955 140.645 129.856 141.213 129.659C141.789 129.455 142.285 129.152 142.702 128.75C143.118 128.341 143.44 127.833 143.668 127.227L146.259 127.955C145.986 128.833 145.527 129.606 144.884 130.273C144.24 130.932 143.444 131.447 142.497 131.818C141.55 132.182 140.486 132.364 139.304 132.364ZM162.293 108.727V132H159.611V108.727H162.293ZM174.523 132.364C172.841 132.364 171.39 131.992 170.17 131.25C168.958 130.5 168.023 129.455 167.364 128.114C166.712 126.765 166.386 125.197 166.386 123.409C166.386 121.621 166.712 120.045 167.364 118.682C168.023 117.311 168.939 116.242 170.114 115.477C171.295 114.705 172.674 114.318 174.25 114.318C175.159 114.318 176.057 114.47 176.943 114.773C177.83 115.076 178.636 115.568 179.364 116.25C180.091 116.924 180.67 117.818 181.102 118.932C181.534 120.045 181.75 121.417 181.75 123.045V124.182H168.295V121.864H179.023C179.023 120.879 178.826 120 178.432 119.227C178.045 118.455 177.492 117.845 176.773 117.398C176.061 116.951 175.22 116.727 174.25 116.727C173.182 116.727 172.258 116.992 171.477 117.523C170.705 118.045 170.11 118.727 169.693 119.568C169.277 120.409 169.068 121.311 169.068 122.273V123.818C169.068 125.136 169.295 126.254 169.75 127.17C170.212 128.08 170.852 128.773 171.67 129.25C172.489 129.72 173.439 129.955 174.523 129.955C175.227 129.955 175.864 129.856 176.432 129.659C177.008 129.455 177.504 129.152 177.92 128.75C178.337 128.341 178.659 127.833 178.886 127.227L181.477 127.955C181.205 128.833 180.746 129.606 180.102 130.273C179.458 130.932 178.663 131.447 177.716 131.818C176.769 132.182 175.705 132.364 174.523 132.364ZM198.193 118.455L195.784 119.136C195.633 118.735 195.409 118.345 195.114 117.966C194.826 117.58 194.432 117.261 193.932 117.011C193.432 116.761 192.792 116.636 192.011 116.636C190.943 116.636 190.053 116.883 189.341 117.375C188.636 117.86 188.284 118.477 188.284 119.227C188.284 119.894 188.527 120.42 189.011 120.807C189.496 121.193 190.254 121.515 191.284 121.773L193.875 122.409C195.436 122.788 196.598 123.367 197.364 124.148C198.129 124.92 198.511 125.917 198.511 127.136C198.511 128.136 198.223 129.03 197.648 129.818C197.08 130.606 196.284 131.227 195.261 131.682C194.239 132.136 193.049 132.364 191.693 132.364C189.913 132.364 188.439 131.977 187.273 131.205C186.106 130.432 185.367 129.303 185.057 127.818L187.602 127.182C187.845 128.121 188.303 128.826 188.977 129.295C189.659 129.765 190.549 130 191.648 130C192.898 130 193.89 129.735 194.625 129.205C195.367 128.667 195.739 128.023 195.739 127.273C195.739 126.667 195.527 126.159 195.102 125.75C194.678 125.333 194.027 125.023 193.148 124.818L190.239 124.136C188.64 123.758 187.466 123.17 186.716 122.375C185.973 121.572 185.602 120.568 185.602 119.364C185.602 118.379 185.879 117.508 186.432 116.75C186.992 115.992 187.754 115.398 188.716 114.966C189.686 114.534 190.784 114.318 192.011 114.318C193.739 114.318 195.095 114.697 196.08 115.455C197.072 116.212 197.777 117.212 198.193 118.455ZM214.912 118.455L212.503 119.136C212.351 118.735 212.128 118.345 211.832 117.966C211.545 117.58 211.151 117.261 210.651 117.011C210.151 116.761 209.51 116.636 208.73 116.636C207.662 116.636 206.772 116.883 206.06 117.375C205.355 117.86 205.003 118.477 205.003 119.227C205.003 119.894 205.245 120.42 205.73 120.807C206.215 121.193 206.973 121.515 208.003 121.773L210.594 122.409C212.154 122.788 213.317 123.367 214.082 124.148C214.848 124.92 215.23 125.917 215.23 127.136C215.23 128.136 214.942 129.03 214.366 129.818C213.798 130.606 213.003 131.227 211.98 131.682C210.957 132.136 209.768 132.364 208.412 132.364C206.632 132.364 205.158 131.977 203.991 131.205C202.825 130.432 202.086 129.303 201.776 127.818L204.321 127.182C204.563 128.121 205.022 128.826 205.696 129.295C206.378 129.765 207.268 130 208.366 130C209.616 130 210.609 129.735 211.344 129.205C212.086 128.667 212.457 128.023 212.457 127.273C212.457 126.667 212.245 126.159 211.821 125.75C211.397 125.333 210.745 125.023 209.866 124.818L206.957 124.136C205.359 123.758 204.185 123.17 203.435 122.375C202.692 121.572 202.321 120.568 202.321 119.364C202.321 118.379 202.598 117.508 203.151 116.75C203.711 115.992 204.473 115.398 205.435 114.966C206.404 114.534 207.503 114.318 208.73 114.318C210.457 114.318 211.813 114.697 212.798 115.455C213.791 116.212 214.495 117.212 214.912 118.455ZM223.267 128.818L223.085 130.045C222.956 130.909 222.759 131.833 222.494 132.818C222.237 133.803 221.968 134.731 221.688 135.602C221.407 136.473 221.176 137.167 220.994 137.682H218.949C219.047 137.197 219.176 136.557 219.335 135.761C219.494 134.966 219.653 134.076 219.812 133.091C219.979 132.114 220.116 131.114 220.222 130.091L220.358 128.818H223.267ZM244.827 114.545V116.818H235.781V114.545H244.827ZM238.418 110.364H241.099V127C241.099 127.758 241.209 128.326 241.429 128.705C241.656 129.076 241.944 129.326 242.293 129.455C242.649 129.576 243.024 129.636 243.418 129.636C243.713 129.636 243.955 129.621 244.145 129.591C244.334 129.553 244.486 129.523 244.599 129.5L245.145 131.909C244.963 131.977 244.709 132.045 244.384 132.114C244.058 132.189 243.645 132.227 243.145 132.227C242.387 132.227 241.645 132.064 240.918 131.739C240.198 131.413 239.599 130.917 239.122 130.25C238.652 129.583 238.418 128.742 238.418 127.727V110.364ZM250.588 138.545C250.134 138.545 249.728 138.508 249.372 138.432C249.016 138.364 248.77 138.295 248.634 138.227L249.315 135.864C249.967 136.03 250.543 136.091 251.043 136.045C251.543 136 251.986 135.777 252.372 135.375C252.766 134.981 253.126 134.341 253.452 133.455L253.952 132.091L247.497 114.545H250.406L255.224 128.455H255.406L260.224 114.545H263.134L255.724 134.545C255.391 135.447 254.978 136.193 254.486 136.784C253.993 137.383 253.421 137.826 252.77 138.114C252.126 138.402 251.399 138.545 250.588 138.545ZM266.673 138.545V114.545H269.264V117.318H269.582C269.779 117.015 270.052 116.629 270.401 116.159C270.757 115.682 271.264 115.258 271.923 114.886C272.59 114.508 273.491 114.318 274.628 114.318C276.098 114.318 277.393 114.686 278.514 115.42C279.635 116.155 280.51 117.197 281.139 118.545C281.768 119.894 282.082 121.485 282.082 123.318C282.082 125.167 281.768 126.769 281.139 128.125C280.51 129.473 279.639 130.519 278.526 131.261C277.412 131.996 276.128 132.364 274.673 132.364C273.552 132.364 272.654 132.178 271.98 131.807C271.306 131.428 270.787 131 270.423 130.523C270.06 130.038 269.779 129.636 269.582 129.318H269.355V138.545H266.673ZM269.31 123.273C269.31 124.591 269.503 125.754 269.889 126.761C270.276 127.761 270.84 128.545 271.582 129.114C272.325 129.674 273.234 129.955 274.31 129.955C275.431 129.955 276.366 129.659 277.116 129.068C277.874 128.47 278.442 127.667 278.821 126.659C279.207 125.644 279.401 124.515 279.401 123.273C279.401 122.045 279.211 120.939 278.832 119.955C278.461 118.962 277.897 118.178 277.139 117.602C276.389 117.019 275.446 116.727 274.31 116.727C273.219 116.727 272.302 117.004 271.56 117.557C270.817 118.102 270.257 118.867 269.878 119.852C269.499 120.83 269.31 121.97 269.31 123.273ZM293.491 132.364C291.81 132.364 290.359 131.992 289.139 131.25C287.927 130.5 286.991 129.455 286.332 128.114C285.681 126.765 285.355 125.197 285.355 123.409C285.355 121.621 285.681 120.045 286.332 118.682C286.991 117.311 287.908 116.242 289.082 115.477C290.264 114.705 291.643 114.318 293.219 114.318C294.128 114.318 295.026 114.47 295.912 114.773C296.798 115.076 297.605 115.568 298.332 116.25C299.06 116.924 299.639 117.818 300.071 118.932C300.503 120.045 300.719 121.417 300.719 123.045V124.182H287.264V121.864H297.991C297.991 120.879 297.795 120 297.401 119.227C297.014 118.455 296.461 117.845 295.741 117.398C295.029 116.951 294.188 116.727 293.219 116.727C292.151 116.727 291.226 116.992 290.446 117.523C289.673 118.045 289.079 118.727 288.662 119.568C288.245 120.409 288.037 121.311 288.037 122.273V123.818C288.037 125.136 288.264 126.254 288.719 127.17C289.181 128.08 289.821 128.773 290.639 129.25C291.457 129.72 292.408 129.955 293.491 129.955C294.196 129.955 294.832 129.856 295.401 129.659C295.976 129.455 296.473 129.152 296.889 128.75C297.306 128.341 297.628 127.833 297.855 127.227L300.446 127.955C300.173 128.833 299.715 129.606 299.071 130.273C298.427 130.932 297.632 131.447 296.685 131.818C295.738 132.182 294.673 132.364 293.491 132.364ZM316.48 108.727V132H313.798V108.727H316.48ZM328.71 132.364C327.028 132.364 325.578 131.992 324.358 131.25C323.146 130.5 322.21 129.455 321.551 128.114C320.9 126.765 320.574 125.197 320.574 123.409C320.574 121.621 320.9 120.045 321.551 118.682C322.21 117.311 323.127 116.242 324.301 115.477C325.483 114.705 326.862 114.318 328.438 114.318C329.347 114.318 330.244 114.47 331.131 114.773C332.017 115.076 332.824 115.568 333.551 116.25C334.278 116.924 334.858 117.818 335.29 118.932C335.722 120.045 335.938 121.417 335.938 123.045V124.182H322.483V121.864H333.21C333.21 120.879 333.013 120 332.619 119.227C332.233 118.455 331.68 117.845 330.96 117.398C330.248 116.951 329.407 116.727 328.438 116.727C327.369 116.727 326.445 116.992 325.665 117.523C324.892 118.045 324.297 118.727 323.881 119.568C323.464 120.409 323.256 121.311 323.256 122.273V123.818C323.256 125.136 323.483 126.254 323.938 127.17C324.4 128.08 325.04 128.773 325.858 129.25C326.676 129.72 327.627 129.955 328.71 129.955C329.415 129.955 330.051 129.856 330.619 129.659C331.195 129.455 331.691 129.152 332.108 128.75C332.525 128.341 332.847 127.833 333.074 127.227L335.665 127.955C335.392 128.833 334.934 129.606 334.29 130.273C333.646 130.932 332.85 131.447 331.903 131.818C330.956 132.182 329.892 132.364 328.71 132.364ZM352.381 118.455L349.972 119.136C349.82 118.735 349.597 118.345 349.301 117.966C349.013 117.58 348.619 117.261 348.119 117.011C347.619 116.761 346.979 116.636 346.199 116.636C345.131 116.636 344.241 116.883 343.528 117.375C342.824 117.86 342.472 118.477 342.472 119.227C342.472 119.894 342.714 120.42 343.199 120.807C343.684 121.193 344.441 121.515 345.472 121.773L348.062 122.409C349.623 122.788 350.786 123.367 351.551 124.148C352.316 124.92 352.699 125.917 352.699 127.136C352.699 128.136 352.411 129.03 351.835 129.818C351.267 130.606 350.472 131.227 349.449 131.682C348.426 132.136 347.237 132.364 345.881 132.364C344.1 132.364 342.627 131.977 341.46 131.205C340.294 130.432 339.555 129.303 339.244 127.818L341.79 127.182C342.032 128.121 342.491 128.826 343.165 129.295C343.847 129.765 344.737 130 345.835 130C347.085 130 348.078 129.735 348.812 129.205C349.555 128.667 349.926 128.023 349.926 127.273C349.926 126.667 349.714 126.159 349.29 125.75C348.866 125.333 348.214 125.023 347.335 124.818L344.426 124.136C342.828 123.758 341.653 123.17 340.903 122.375C340.161 121.572 339.79 120.568 339.79 119.364C339.79 118.379 340.066 117.508 340.619 116.75C341.18 115.992 341.941 115.398 342.903 114.966C343.873 114.534 344.972 114.318 346.199 114.318C347.926 114.318 349.282 114.697 350.267 115.455C351.259 116.212 351.964 117.212 352.381 118.455ZM369.099 118.455L366.69 119.136C366.539 118.735 366.315 118.345 366.02 117.966C365.732 117.58 365.338 117.261 364.838 117.011C364.338 116.761 363.698 116.636 362.918 116.636C361.849 116.636 360.959 116.883 360.247 117.375C359.543 117.86 359.19 118.477 359.19 119.227C359.19 119.894 359.433 120.42 359.918 120.807C360.402 121.193 361.16 121.515 362.19 121.773L364.781 122.409C366.342 122.788 367.505 123.367 368.27 124.148C369.035 124.92 369.418 125.917 369.418 127.136C369.418 128.136 369.13 129.03 368.554 129.818C367.986 130.606 367.19 131.227 366.168 131.682C365.145 132.136 363.955 132.364 362.599 132.364C360.819 132.364 359.346 131.977 358.179 131.205C357.012 130.432 356.274 129.303 355.963 127.818L358.509 127.182C358.751 128.121 359.209 128.826 359.884 129.295C360.565 129.765 361.455 130 362.554 130C363.804 130 364.796 129.735 365.531 129.205C366.274 128.667 366.645 128.023 366.645 127.273C366.645 126.667 366.433 126.159 366.009 125.75C365.584 125.333 364.933 125.023 364.054 124.818L361.145 124.136C359.546 123.758 358.372 123.17 357.622 122.375C356.88 121.572 356.509 120.568 356.509 119.364C356.509 118.379 356.785 117.508 357.338 116.75C357.899 115.992 358.66 115.398 359.622 114.966C360.592 114.534 361.69 114.318 362.918 114.318C364.645 114.318 366.001 114.697 366.986 115.455C367.978 116.212 368.683 117.212 369.099 118.455ZM375.409 132.182C374.848 132.182 374.367 131.981 373.966 131.58C373.564 131.178 373.364 130.697 373.364 130.136C373.364 129.576 373.564 129.095 373.966 128.693C374.367 128.292 374.848 128.091 375.409 128.091C375.97 128.091 376.451 128.292 376.852 128.693C377.254 129.095 377.455 129.576 377.455 130.136C377.455 130.508 377.36 130.848 377.17 131.159C376.989 131.47 376.742 131.72 376.432 131.909C376.129 132.091 375.788 132.182 375.409 132.182ZM474.608 153.545V155.818H465.562V153.545H474.608ZM468.199 149.364H470.881V166C470.881 166.758 470.991 167.326 471.21 167.705C471.438 168.076 471.725 168.326 472.074 168.455C472.43 168.576 472.805 168.636 473.199 168.636C473.494 168.636 473.737 168.621 473.926 168.591C474.116 168.553 474.267 168.523 474.381 168.5L474.926 170.909C474.744 170.977 474.491 171.045 474.165 171.114C473.839 171.189 473.426 171.227 472.926 171.227C472.169 171.227 471.426 171.064 470.699 170.739C469.979 170.413 469.381 169.917 468.903 169.25C468.434 168.583 468.199 167.742 468.199 166.727V149.364ZM485.773 171.364C484.091 171.364 482.64 170.992 481.42 170.25C480.208 169.5 479.273 168.455 478.614 167.114C477.962 165.765 477.636 164.197 477.636 162.409C477.636 160.621 477.962 159.045 478.614 157.682C479.273 156.311 480.189 155.242 481.364 154.477C482.545 153.705 483.924 153.318 485.5 153.318C486.409 153.318 487.307 153.47 488.193 153.773C489.08 154.076 489.886 154.568 490.614 155.25C491.341 155.924 491.92 156.818 492.352 157.932C492.784 159.045 493 160.417 493 162.045V163.182H479.545V160.864H490.273C490.273 159.879 490.076 159 489.682 158.227C489.295 157.455 488.742 156.845 488.023 156.398C487.311 155.951 486.47 155.727 485.5 155.727C484.432 155.727 483.508 155.992 482.727 156.523C481.955 157.045 481.36 157.727 480.943 158.568C480.527 159.409 480.318 160.311 480.318 161.273V162.818C480.318 164.136 480.545 165.254 481 166.17C481.462 167.08 482.102 167.773 482.92 168.25C483.739 168.72 484.689 168.955 485.773 168.955C486.477 168.955 487.114 168.856 487.682 168.659C488.258 168.455 488.754 168.152 489.17 167.75C489.587 167.341 489.909 166.833 490.136 166.227L492.727 166.955C492.455 167.833 491.996 168.606 491.352 169.273C490.708 169.932 489.913 170.447 488.966 170.818C488.019 171.182 486.955 171.364 485.773 171.364ZM499.761 147.727V171H497.08V147.727H499.761ZM507.355 147.727V171H504.673V147.727H507.355ZM512.267 171V153.545H514.949V171H512.267ZM513.631 150.636C513.108 150.636 512.657 150.458 512.278 150.102C511.907 149.746 511.722 149.318 511.722 148.818C511.722 148.318 511.907 147.89 512.278 147.534C512.657 147.178 513.108 147 513.631 147C514.153 147 514.6 147.178 514.972 147.534C515.35 147.89 515.54 148.318 515.54 148.818C515.54 149.318 515.35 149.746 514.972 150.102C514.6 150.458 514.153 150.636 513.631 150.636ZM526.906 177.909C525.611 177.909 524.497 177.742 523.565 177.409C522.634 177.083 521.857 176.652 521.236 176.114C520.622 175.583 520.134 175.015 519.77 174.409L521.906 172.909C522.149 173.227 522.455 173.591 522.827 174C523.198 174.417 523.705 174.777 524.349 175.08C525.001 175.39 525.853 175.545 526.906 175.545C528.315 175.545 529.478 175.205 530.395 174.523C531.312 173.841 531.77 172.773 531.77 171.318V167.773H531.543C531.346 168.091 531.065 168.485 530.702 168.955C530.346 169.417 529.83 169.83 529.156 170.193C528.49 170.549 527.588 170.727 526.452 170.727C525.043 170.727 523.777 170.394 522.656 169.727C521.543 169.061 520.66 168.091 520.009 166.818C519.365 165.545 519.043 164 519.043 162.182C519.043 160.394 519.357 158.837 519.986 157.511C520.615 156.178 521.49 155.148 522.611 154.42C523.732 153.686 525.027 153.318 526.497 153.318C527.634 153.318 528.535 153.508 529.202 153.886C529.876 154.258 530.391 154.682 530.747 155.159C531.111 155.629 531.391 156.015 531.588 156.318H531.861V153.545H534.452V171.5C534.452 173 534.111 174.22 533.429 175.159C532.755 176.106 531.846 176.799 530.702 177.239C529.565 177.686 528.3 177.909 526.906 177.909ZM526.815 168.318C527.891 168.318 528.8 168.072 529.543 167.58C530.285 167.087 530.849 166.379 531.236 165.455C531.622 164.53 531.815 163.424 531.815 162.136C531.815 160.879 531.626 159.769 531.247 158.807C530.868 157.845 530.308 157.091 529.565 156.545C528.823 156 527.906 155.727 526.815 155.727C525.679 155.727 524.732 156.015 523.974 156.591C523.224 157.167 522.66 157.939 522.281 158.909C521.91 159.879 521.724 160.955 521.724 162.136C521.724 163.348 521.914 164.42 522.293 165.352C522.679 166.277 523.247 167.004 523.997 167.534C524.755 168.057 525.694 168.318 526.815 168.318ZM546.679 171.364C544.997 171.364 543.546 170.992 542.327 170.25C541.115 169.5 540.179 168.455 539.52 167.114C538.868 165.765 538.543 164.197 538.543 162.409C538.543 160.621 538.868 159.045 539.52 157.682C540.179 156.311 541.096 155.242 542.27 154.477C543.452 153.705 544.83 153.318 546.406 153.318C547.315 153.318 548.213 153.47 549.099 153.773C549.986 154.076 550.793 154.568 551.52 155.25C552.247 155.924 552.827 156.818 553.259 157.932C553.69 159.045 553.906 160.417 553.906 162.045V163.182H540.452V160.864H551.179C551.179 159.879 550.982 159 550.588 158.227C550.202 157.455 549.649 156.845 548.929 156.398C548.217 155.951 547.376 155.727 546.406 155.727C545.338 155.727 544.414 155.992 543.634 156.523C542.861 157.045 542.266 157.727 541.849 158.568C541.433 159.409 541.224 160.311 541.224 161.273V162.818C541.224 164.136 541.452 165.254 541.906 166.17C542.368 167.08 543.009 167.773 543.827 168.25C544.645 168.72 545.596 168.955 546.679 168.955C547.384 168.955 548.02 168.856 548.588 168.659C549.164 168.455 549.66 168.152 550.077 167.75C550.493 167.341 550.815 166.833 551.043 166.227L553.634 166.955C553.361 167.833 552.902 168.606 552.259 169.273C551.615 169.932 550.819 170.447 549.872 170.818C548.925 171.182 547.861 171.364 546.679 171.364ZM560.668 160.5V171H557.986V153.545H560.577V156.273H560.804C561.213 155.386 561.834 154.674 562.668 154.136C563.501 153.591 564.577 153.318 565.895 153.318C567.077 153.318 568.111 153.561 568.997 154.045C569.884 154.523 570.573 155.25 571.065 156.227C571.558 157.197 571.804 158.424 571.804 159.909V171H569.122V160.091C569.122 158.72 568.766 157.652 568.054 156.886C567.342 156.114 566.365 155.727 565.122 155.727C564.266 155.727 563.501 155.913 562.827 156.284C562.16 156.655 561.634 157.197 561.247 157.909C560.861 158.621 560.668 159.485 560.668 160.5ZM584.295 153.545V155.818H575.25V153.545H584.295ZM577.886 149.364H580.568V166C580.568 166.758 580.678 167.326 580.898 167.705C581.125 168.076 581.413 168.326 581.761 168.455C582.117 168.576 582.492 168.636 582.886 168.636C583.182 168.636 583.424 168.621 583.614 168.591C583.803 168.553 583.955 168.523 584.068 168.5L584.614 170.909C584.432 170.977 584.178 171.045 583.852 171.114C583.527 171.189 583.114 171.227 582.614 171.227C581.856 171.227 581.114 171.064 580.386 170.739C579.667 170.413 579.068 169.917 578.591 169.25C578.121 168.583 577.886 167.742 577.886 166.727V149.364ZM706.403 171.409C705.297 171.409 704.294 171.201 703.392 170.784C702.491 170.36 701.775 169.75 701.244 168.955C700.714 168.152 700.449 167.182 700.449 166.045C700.449 165.045 700.646 164.235 701.04 163.614C701.434 162.985 701.96 162.492 702.619 162.136C703.278 161.78 704.006 161.515 704.801 161.341C705.604 161.159 706.411 161.015 707.222 160.909C708.282 160.773 709.142 160.67 709.801 160.602C710.468 160.527 710.953 160.402 711.256 160.227C711.566 160.053 711.722 159.75 711.722 159.318V159.227C711.722 158.106 711.415 157.235 710.801 156.614C710.195 155.992 709.275 155.682 708.04 155.682C706.759 155.682 705.756 155.962 705.028 156.523C704.301 157.083 703.79 157.682 703.494 158.318L700.949 157.409C701.403 156.348 702.009 155.523 702.767 154.932C703.532 154.333 704.366 153.917 705.267 153.682C706.176 153.439 707.07 153.318 707.949 153.318C708.509 153.318 709.153 153.386 709.881 153.523C710.616 153.652 711.324 153.92 712.006 154.33C712.695 154.739 713.267 155.356 713.722 156.182C714.176 157.008 714.403 158.114 714.403 159.5V171H711.722V168.636H711.585C711.403 169.015 711.1 169.42 710.676 169.852C710.252 170.284 709.688 170.652 708.983 170.955C708.278 171.258 707.419 171.409 706.403 171.409ZM706.812 169C707.873 169 708.767 168.792 709.494 168.375C710.229 167.958 710.782 167.42 711.153 166.761C711.532 166.102 711.722 165.409 711.722 164.682V162.227C711.608 162.364 711.358 162.489 710.972 162.602C710.593 162.708 710.153 162.803 709.653 162.886C709.161 162.962 708.68 163.03 708.21 163.091C707.748 163.144 707.373 163.189 707.085 163.227C706.388 163.318 705.737 163.466 705.131 163.67C704.532 163.867 704.047 164.167 703.676 164.568C703.313 164.962 703.131 165.5 703.131 166.182C703.131 167.114 703.475 167.818 704.165 168.295C704.862 168.765 705.744 169 706.812 169ZM719.662 171V147.727H722.344V156.318H722.571C722.768 156.015 723.041 155.629 723.389 155.159C723.745 154.682 724.253 154.258 724.912 153.886C725.579 153.508 726.48 153.318 727.616 153.318C729.086 153.318 730.382 153.686 731.503 154.42C732.624 155.155 733.499 156.197 734.128 157.545C734.757 158.894 735.071 160.485 735.071 162.318C735.071 164.167 734.757 165.769 734.128 167.125C733.499 168.473 732.628 169.519 731.514 170.261C730.401 170.996 729.116 171.364 727.662 171.364C726.541 171.364 725.643 171.178 724.969 170.807C724.295 170.428 723.776 170 723.412 169.523C723.048 169.038 722.768 168.636 722.571 168.318H722.253V171H719.662ZM722.298 162.273C722.298 163.591 722.491 164.754 722.878 165.761C723.264 166.761 723.829 167.545 724.571 168.114C725.313 168.674 726.223 168.955 727.298 168.955C728.42 168.955 729.355 168.659 730.105 168.068C730.863 167.47 731.431 166.667 731.81 165.659C732.196 164.644 732.389 163.515 732.389 162.273C732.389 161.045 732.2 159.939 731.821 158.955C731.45 157.962 730.885 157.178 730.128 156.602C729.378 156.019 728.435 155.727 727.298 155.727C726.207 155.727 725.291 156.004 724.548 156.557C723.806 157.102 723.245 157.867 722.866 158.852C722.488 159.83 722.298 160.97 722.298 162.273ZM739.173 171V153.545H741.855V171H739.173ZM740.537 150.636C740.014 150.636 739.563 150.458 739.185 150.102C738.813 149.746 738.628 149.318 738.628 148.818C738.628 148.318 738.813 147.89 739.185 147.534C739.563 147.178 740.014 147 740.537 147C741.06 147 741.507 147.178 741.878 147.534C742.257 147.89 742.446 148.318 742.446 148.818C742.446 149.318 742.257 149.746 741.878 150.102C741.507 150.458 741.06 150.636 740.537 150.636ZM749.449 147.727V171H746.767V147.727H749.449ZM754.361 171V153.545H757.043V171H754.361ZM755.724 150.636C755.202 150.636 754.751 150.458 754.372 150.102C754.001 149.746 753.815 149.318 753.815 148.818C753.815 148.318 754.001 147.89 754.372 147.534C754.751 147.178 755.202 147 755.724 147C756.247 147 756.694 147.178 757.065 147.534C757.444 147.89 757.634 148.318 757.634 148.818C757.634 149.318 757.444 149.746 757.065 150.102C756.694 150.458 756.247 150.636 755.724 150.636ZM769.545 153.545V155.818H760.5V153.545H769.545ZM763.136 149.364H765.818V166C765.818 166.758 765.928 167.326 766.148 167.705C766.375 168.076 766.663 168.326 767.011 168.455C767.367 168.576 767.742 168.636 768.136 168.636C768.432 168.636 768.674 168.621 768.864 168.591C769.053 168.553 769.205 168.523 769.318 168.5L769.864 170.909C769.682 170.977 769.428 171.045 769.102 171.114C768.777 171.189 768.364 171.227 767.864 171.227C767.106 171.227 766.364 171.064 765.636 170.739C764.917 170.413 764.318 169.917 763.841 169.25C763.371 168.583 763.136 167.742 763.136 166.727V149.364ZM775.307 177.545C774.852 177.545 774.447 177.508 774.091 177.432C773.735 177.364 773.489 177.295 773.352 177.227L774.034 174.864C774.686 175.03 775.261 175.091 775.761 175.045C776.261 175 776.705 174.777 777.091 174.375C777.485 173.981 777.845 173.341 778.17 172.455L778.67 171.091L772.216 153.545H775.125L779.943 167.455H780.125L784.943 153.545H787.852L780.443 173.545C780.11 174.447 779.697 175.193 779.205 175.784C778.712 176.383 778.14 176.826 777.489 177.114C776.845 177.402 776.117 177.545 775.307 177.545Z" fill="black"/>
</g>
</svg>
