<svg width="1693" height="323" viewBox="0 0 1693 323" fill="none" xmlns="http://www.w3.org/2000/svg">
<g opacity="0.9">
<path d="M318.909 33.1818V103H310.455V33.1818H318.909ZM391.224 33.1818V103H383.043L344.997 48.1818H344.315V103H335.861V33.1818H344.043L382.224 88.1364H382.906V33.1818H391.224ZM404.324 40.6818V33.1818H456.688V40.6818H434.733V103H426.278V40.6818H404.324ZM469.736 103V33.1818H493.327C498.781 33.1818 503.259 34.1136 506.759 35.9773C510.259 37.8182 512.849 40.3523 514.531 43.5795C516.213 46.8068 517.054 50.4773 517.054 54.5909C517.054 58.7045 516.213 62.3523 514.531 65.5341C512.849 68.7159 510.27 71.2159 506.793 73.0341C503.315 74.8295 498.872 75.7273 493.463 75.7273H474.372V68.0909H493.19C496.918 68.0909 499.918 67.5455 502.19 66.4545C504.486 65.3636 506.145 63.8182 507.168 61.8182C508.213 59.7955 508.736 57.3864 508.736 54.5909C508.736 51.7955 508.213 49.3523 507.168 47.2614C506.122 45.1705 504.452 43.5568 502.156 42.4205C499.861 41.2614 496.827 40.6818 493.054 40.6818H478.19V103H469.736ZM502.599 71.6364L519.781 103H509.963L493.054 71.6364H502.599ZM534.006 103H525.142L550.778 33.1818H559.506L585.142 103H576.278L555.415 44.2273H554.869L534.006 103ZM537.278 75.7273H573.006V83.2273H537.278V75.7273ZM648.918 55H640.463C639.963 52.5682 639.088 50.4318 637.838 48.5909C636.611 46.75 635.111 45.2045 633.338 43.9545C631.588 42.6818 629.645 41.7273 627.509 41.0909C625.372 40.4545 623.145 40.1364 620.827 40.1364C616.599 40.1364 612.77 41.2045 609.338 43.3409C605.929 45.4773 603.213 48.625 601.19 52.7841C599.19 56.9432 598.19 62.0455 598.19 68.0909C598.19 74.1364 599.19 79.2386 601.19 83.3977C603.213 87.5568 605.929 90.7045 609.338 92.8409C612.77 94.9773 616.599 96.0455 620.827 96.0455C623.145 96.0455 625.372 95.7273 627.509 95.0909C629.645 94.4545 631.588 93.5114 633.338 92.2614C635.111 90.9886 636.611 89.4318 637.838 87.5909C639.088 85.7273 639.963 83.5909 640.463 81.1818H648.918C648.281 84.75 647.122 87.9432 645.44 90.7614C643.759 93.5795 641.668 95.9773 639.168 97.9545C636.668 99.9091 633.861 101.398 630.747 102.42C627.656 103.443 624.349 103.955 620.827 103.955C614.872 103.955 609.577 102.5 604.94 99.5909C600.304 96.6818 596.656 92.5455 593.997 87.1818C591.338 81.8182 590.009 75.4545 590.009 68.0909C590.009 60.7273 591.338 54.3636 593.997 49C596.656 43.6364 600.304 39.5 604.94 36.5909C609.577 33.6818 614.872 32.2273 620.827 32.2273C624.349 32.2273 627.656 32.7386 630.747 33.7614C633.861 34.7841 636.668 36.2841 639.168 38.2614C641.668 40.2159 643.759 42.6023 645.44 45.4205C647.122 48.2159 648.281 51.4091 648.918 55ZM662.58 103V33.1818H704.716V40.6818H671.034V64.2727H702.534V71.7727H671.034V95.5H705.261V103H662.58Z" fill="#007BFF"/>
<path d="M339.545 121.227V118.727H357V121.227H349.682V142H346.864V121.227H339.545ZM359.173 142V124.545H361.764V127.182H361.946C362.264 126.318 362.84 125.617 363.673 125.08C364.507 124.542 365.446 124.273 366.491 124.273C366.688 124.273 366.935 124.277 367.23 124.284C367.526 124.292 367.749 124.303 367.901 124.318V127.045C367.81 127.023 367.601 126.989 367.276 126.943C366.957 126.89 366.62 126.864 366.264 126.864C365.416 126.864 364.658 127.042 363.991 127.398C363.332 127.746 362.81 128.231 362.423 128.852C362.045 129.466 361.855 130.167 361.855 130.955V142H359.173ZM376.216 142.409C375.11 142.409 374.106 142.201 373.205 141.784C372.303 141.36 371.587 140.75 371.057 139.955C370.527 139.152 370.261 138.182 370.261 137.045C370.261 136.045 370.458 135.235 370.852 134.614C371.246 133.985 371.773 133.492 372.432 133.136C373.091 132.78 373.818 132.515 374.614 132.341C375.417 132.159 376.223 132.015 377.034 131.909C378.095 131.773 378.955 131.67 379.614 131.602C380.28 131.527 380.765 131.402 381.068 131.227C381.379 131.053 381.534 130.75 381.534 130.318V130.227C381.534 129.106 381.227 128.235 380.614 127.614C380.008 126.992 379.087 126.682 377.852 126.682C376.572 126.682 375.568 126.962 374.841 127.523C374.114 128.083 373.602 128.682 373.307 129.318L370.761 128.409C371.216 127.348 371.822 126.523 372.58 125.932C373.345 125.333 374.178 124.917 375.08 124.682C375.989 124.439 376.883 124.318 377.761 124.318C378.322 124.318 378.966 124.386 379.693 124.523C380.428 124.652 381.136 124.92 381.818 125.33C382.508 125.739 383.08 126.356 383.534 127.182C383.989 128.008 384.216 129.114 384.216 130.5V142H381.534V139.636H381.398C381.216 140.015 380.913 140.42 380.489 140.852C380.064 141.284 379.5 141.652 378.795 141.955C378.091 142.258 377.231 142.409 376.216 142.409ZM376.625 140C377.686 140 378.58 139.792 379.307 139.375C380.042 138.958 380.595 138.42 380.966 137.761C381.345 137.102 381.534 136.409 381.534 135.682V133.227C381.42 133.364 381.17 133.489 380.784 133.602C380.405 133.708 379.966 133.803 379.466 133.886C378.973 133.962 378.492 134.03 378.023 134.091C377.561 134.144 377.186 134.189 376.898 134.227C376.201 134.318 375.549 134.466 374.943 134.67C374.345 134.867 373.86 135.167 373.489 135.568C373.125 135.962 372.943 136.5 372.943 137.182C372.943 138.114 373.288 138.818 373.977 139.295C374.674 139.765 375.557 140 376.625 140ZM396.202 142.364C394.565 142.364 393.156 141.977 391.974 141.205C390.793 140.432 389.884 139.367 389.247 138.011C388.611 136.655 388.293 135.106 388.293 133.364C388.293 131.591 388.618 130.027 389.27 128.67C389.929 127.307 390.846 126.242 392.02 125.477C393.202 124.705 394.58 124.318 396.156 124.318C397.384 124.318 398.49 124.545 399.474 125C400.459 125.455 401.266 126.091 401.895 126.909C402.524 127.727 402.914 128.682 403.065 129.773H400.384C400.179 128.977 399.724 128.273 399.02 127.659C398.323 127.038 397.384 126.727 396.202 126.727C395.156 126.727 394.24 127 393.452 127.545C392.671 128.083 392.062 128.845 391.622 129.83C391.19 130.807 390.974 131.955 390.974 133.273C390.974 134.621 391.187 135.795 391.611 136.795C392.043 137.795 392.649 138.572 393.429 139.125C394.217 139.678 395.141 139.955 396.202 139.955C396.899 139.955 397.531 139.833 398.099 139.591C398.668 139.348 399.149 139 399.543 138.545C399.937 138.091 400.217 137.545 400.384 136.909H403.065C402.914 137.939 402.539 138.867 401.94 139.693C401.349 140.511 400.565 141.163 399.588 141.648C398.618 142.125 397.49 142.364 396.202 142.364ZM414.304 142.364C412.622 142.364 411.171 141.992 409.952 141.25C408.74 140.5 407.804 139.455 407.145 138.114C406.493 136.765 406.168 135.197 406.168 133.409C406.168 131.621 406.493 130.045 407.145 128.682C407.804 127.311 408.721 126.242 409.895 125.477C411.077 124.705 412.455 124.318 414.031 124.318C414.94 124.318 415.838 124.47 416.724 124.773C417.611 125.076 418.418 125.568 419.145 126.25C419.872 126.924 420.452 127.818 420.884 128.932C421.315 130.045 421.531 131.417 421.531 133.045V134.182H408.077V131.864H418.804C418.804 130.879 418.607 130 418.213 129.227C417.827 128.455 417.274 127.845 416.554 127.398C415.842 126.951 415.001 126.727 414.031 126.727C412.963 126.727 412.039 126.992 411.259 127.523C410.486 128.045 409.891 128.727 409.474 129.568C409.058 130.409 408.849 131.311 408.849 132.273V133.818C408.849 135.136 409.077 136.254 409.531 137.17C409.993 138.08 410.634 138.773 411.452 139.25C412.27 139.72 413.221 139.955 414.304 139.955C415.009 139.955 415.645 139.856 416.213 139.659C416.789 139.455 417.285 139.152 417.702 138.75C418.118 138.341 418.44 137.833 418.668 137.227L421.259 137.955C420.986 138.833 420.527 139.606 419.884 140.273C419.24 140.932 418.444 141.447 417.497 141.818C416.55 142.182 415.486 142.364 414.304 142.364ZM437.293 118.727V142H434.611V118.727H437.293ZM449.523 142.364C447.841 142.364 446.39 141.992 445.17 141.25C443.958 140.5 443.023 139.455 442.364 138.114C441.712 136.765 441.386 135.197 441.386 133.409C441.386 131.621 441.712 130.045 442.364 128.682C443.023 127.311 443.939 126.242 445.114 125.477C446.295 124.705 447.674 124.318 449.25 124.318C450.159 124.318 451.057 124.47 451.943 124.773C452.83 125.076 453.636 125.568 454.364 126.25C455.091 126.924 455.67 127.818 456.102 128.932C456.534 130.045 456.75 131.417 456.75 133.045V134.182H443.295V131.864H454.023C454.023 130.879 453.826 130 453.432 129.227C453.045 128.455 452.492 127.845 451.773 127.398C451.061 126.951 450.22 126.727 449.25 126.727C448.182 126.727 447.258 126.992 446.477 127.523C445.705 128.045 445.11 128.727 444.693 129.568C444.277 130.409 444.068 131.311 444.068 132.273V133.818C444.068 135.136 444.295 136.254 444.75 137.17C445.212 138.08 445.852 138.773 446.67 139.25C447.489 139.72 448.439 139.955 449.523 139.955C450.227 139.955 450.864 139.856 451.432 139.659C452.008 139.455 452.504 139.152 452.92 138.75C453.337 138.341 453.659 137.833 453.886 137.227L456.477 137.955C456.205 138.833 455.746 139.606 455.102 140.273C454.458 140.932 453.663 141.447 452.716 141.818C451.769 142.182 450.705 142.364 449.523 142.364ZM473.193 128.455L470.784 129.136C470.633 128.735 470.409 128.345 470.114 127.966C469.826 127.58 469.432 127.261 468.932 127.011C468.432 126.761 467.792 126.636 467.011 126.636C465.943 126.636 465.053 126.883 464.341 127.375C463.636 127.86 463.284 128.477 463.284 129.227C463.284 129.894 463.527 130.42 464.011 130.807C464.496 131.193 465.254 131.515 466.284 131.773L468.875 132.409C470.436 132.788 471.598 133.367 472.364 134.148C473.129 134.92 473.511 135.917 473.511 137.136C473.511 138.136 473.223 139.03 472.648 139.818C472.08 140.606 471.284 141.227 470.261 141.682C469.239 142.136 468.049 142.364 466.693 142.364C464.913 142.364 463.439 141.977 462.273 141.205C461.106 140.432 460.367 139.303 460.057 137.818L462.602 137.182C462.845 138.121 463.303 138.826 463.977 139.295C464.659 139.765 465.549 140 466.648 140C467.898 140 468.89 139.735 469.625 139.205C470.367 138.667 470.739 138.023 470.739 137.273C470.739 136.667 470.527 136.159 470.102 135.75C469.678 135.333 469.027 135.023 468.148 134.818L465.239 134.136C463.64 133.758 462.466 133.17 461.716 132.375C460.973 131.572 460.602 130.568 460.602 129.364C460.602 128.379 460.879 127.508 461.432 126.75C461.992 125.992 462.754 125.398 463.716 124.966C464.686 124.534 465.784 124.318 467.011 124.318C468.739 124.318 470.095 124.697 471.08 125.455C472.072 126.212 472.777 127.212 473.193 128.455ZM489.912 128.455L487.503 129.136C487.351 128.735 487.128 128.345 486.832 127.966C486.545 127.58 486.151 127.261 485.651 127.011C485.151 126.761 484.51 126.636 483.73 126.636C482.662 126.636 481.772 126.883 481.06 127.375C480.355 127.86 480.003 128.477 480.003 129.227C480.003 129.894 480.245 130.42 480.73 130.807C481.215 131.193 481.973 131.515 483.003 131.773L485.594 132.409C487.154 132.788 488.317 133.367 489.082 134.148C489.848 134.92 490.23 135.917 490.23 137.136C490.23 138.136 489.942 139.03 489.366 139.818C488.798 140.606 488.003 141.227 486.98 141.682C485.957 142.136 484.768 142.364 483.412 142.364C481.632 142.364 480.158 141.977 478.991 141.205C477.825 140.432 477.086 139.303 476.776 137.818L479.321 137.182C479.563 138.121 480.022 138.826 480.696 139.295C481.378 139.765 482.268 140 483.366 140C484.616 140 485.609 139.735 486.344 139.205C487.086 138.667 487.457 138.023 487.457 137.273C487.457 136.667 487.245 136.159 486.821 135.75C486.397 135.333 485.745 135.023 484.866 134.818L481.957 134.136C480.359 133.758 479.185 133.17 478.435 132.375C477.692 131.572 477.321 130.568 477.321 129.364C477.321 128.379 477.598 127.508 478.151 126.75C478.711 125.992 479.473 125.398 480.435 124.966C481.404 124.534 482.503 124.318 483.73 124.318C485.457 124.318 486.813 124.697 487.798 125.455C488.791 126.212 489.495 127.212 489.912 128.455ZM498.267 138.818L498.085 140.045C497.956 140.909 497.759 141.833 497.494 142.818C497.237 143.803 496.968 144.731 496.688 145.602C496.407 146.473 496.176 147.167 495.994 147.682H493.949C494.047 147.197 494.176 146.557 494.335 145.761C494.494 144.966 494.653 144.076 494.812 143.091C494.979 142.114 495.116 141.114 495.222 140.091L495.358 138.818H498.267ZM519.827 124.545V126.818H510.781V124.545H519.827ZM513.418 120.364H516.099V137C516.099 137.758 516.209 138.326 516.429 138.705C516.656 139.076 516.944 139.326 517.293 139.455C517.649 139.576 518.024 139.636 518.418 139.636C518.713 139.636 518.955 139.621 519.145 139.591C519.334 139.553 519.486 139.523 519.599 139.5L520.145 141.909C519.963 141.977 519.709 142.045 519.384 142.114C519.058 142.189 518.645 142.227 518.145 142.227C517.387 142.227 516.645 142.064 515.918 141.739C515.198 141.413 514.599 140.917 514.122 140.25C513.652 139.583 513.418 138.742 513.418 137.727V120.364ZM525.588 148.545C525.134 148.545 524.728 148.508 524.372 148.432C524.016 148.364 523.77 148.295 523.634 148.227L524.315 145.864C524.967 146.03 525.543 146.091 526.043 146.045C526.543 146 526.986 145.777 527.372 145.375C527.766 144.981 528.126 144.341 528.452 143.455L528.952 142.091L522.497 124.545H525.406L530.224 138.455H530.406L535.224 124.545H538.134L530.724 144.545C530.391 145.447 529.978 146.193 529.486 146.784C528.993 147.383 528.421 147.826 527.77 148.114C527.126 148.402 526.399 148.545 525.588 148.545ZM541.673 148.545V124.545H544.264V127.318H544.582C544.779 127.015 545.052 126.629 545.401 126.159C545.757 125.682 546.264 125.258 546.923 124.886C547.59 124.508 548.491 124.318 549.628 124.318C551.098 124.318 552.393 124.686 553.514 125.42C554.635 126.155 555.51 127.197 556.139 128.545C556.768 129.894 557.082 131.485 557.082 133.318C557.082 135.167 556.768 136.769 556.139 138.125C555.51 139.473 554.639 140.519 553.526 141.261C552.412 141.996 551.128 142.364 549.673 142.364C548.552 142.364 547.654 142.178 546.98 141.807C546.306 141.428 545.787 141 545.423 140.523C545.06 140.038 544.779 139.636 544.582 139.318H544.355V148.545H541.673ZM544.31 133.273C544.31 134.591 544.503 135.754 544.889 136.761C545.276 137.761 545.84 138.545 546.582 139.114C547.325 139.674 548.234 139.955 549.31 139.955C550.431 139.955 551.366 139.659 552.116 139.068C552.874 138.47 553.442 137.667 553.821 136.659C554.207 135.644 554.401 134.515 554.401 133.273C554.401 132.045 554.211 130.939 553.832 129.955C553.461 128.962 552.897 128.178 552.139 127.602C551.389 127.019 550.446 126.727 549.31 126.727C548.219 126.727 547.302 127.004 546.56 127.557C545.817 128.102 545.257 128.867 544.878 129.852C544.499 130.83 544.31 131.97 544.31 133.273ZM568.491 142.364C566.81 142.364 565.359 141.992 564.139 141.25C562.927 140.5 561.991 139.455 561.332 138.114C560.681 136.765 560.355 135.197 560.355 133.409C560.355 131.621 560.681 130.045 561.332 128.682C561.991 127.311 562.908 126.242 564.082 125.477C565.264 124.705 566.643 124.318 568.219 124.318C569.128 124.318 570.026 124.47 570.912 124.773C571.798 125.076 572.605 125.568 573.332 126.25C574.06 126.924 574.639 127.818 575.071 128.932C575.503 130.045 575.719 131.417 575.719 133.045V134.182H562.264V131.864H572.991C572.991 130.879 572.795 130 572.401 129.227C572.014 128.455 571.461 127.845 570.741 127.398C570.029 126.951 569.188 126.727 568.219 126.727C567.151 126.727 566.226 126.992 565.446 127.523C564.673 128.045 564.079 128.727 563.662 129.568C563.245 130.409 563.037 131.311 563.037 132.273V133.818C563.037 135.136 563.264 136.254 563.719 137.17C564.181 138.08 564.821 138.773 565.639 139.25C566.457 139.72 567.408 139.955 568.491 139.955C569.196 139.955 569.832 139.856 570.401 139.659C570.976 139.455 571.473 139.152 571.889 138.75C572.306 138.341 572.628 137.833 572.855 137.227L575.446 137.955C575.173 138.833 574.715 139.606 574.071 140.273C573.427 140.932 572.632 141.447 571.685 141.818C570.738 142.182 569.673 142.364 568.491 142.364ZM591.48 118.727V142H588.798V118.727H591.48ZM603.71 142.364C602.028 142.364 600.578 141.992 599.358 141.25C598.146 140.5 597.21 139.455 596.551 138.114C595.9 136.765 595.574 135.197 595.574 133.409C595.574 131.621 595.9 130.045 596.551 128.682C597.21 127.311 598.127 126.242 599.301 125.477C600.483 124.705 601.862 124.318 603.438 124.318C604.347 124.318 605.244 124.47 606.131 124.773C607.017 125.076 607.824 125.568 608.551 126.25C609.278 126.924 609.858 127.818 610.29 128.932C610.722 130.045 610.938 131.417 610.938 133.045V134.182H597.483V131.864H608.21C608.21 130.879 608.013 130 607.619 129.227C607.233 128.455 606.68 127.845 605.96 127.398C605.248 126.951 604.407 126.727 603.438 126.727C602.369 126.727 601.445 126.992 600.665 127.523C599.892 128.045 599.297 128.727 598.881 129.568C598.464 130.409 598.256 131.311 598.256 132.273V133.818C598.256 135.136 598.483 136.254 598.938 137.17C599.4 138.08 600.04 138.773 600.858 139.25C601.676 139.72 602.627 139.955 603.71 139.955C604.415 139.955 605.051 139.856 605.619 139.659C606.195 139.455 606.691 139.152 607.108 138.75C607.525 138.341 607.847 137.833 608.074 137.227L610.665 137.955C610.392 138.833 609.934 139.606 609.29 140.273C608.646 140.932 607.85 141.447 606.903 141.818C605.956 142.182 604.892 142.364 603.71 142.364ZM627.381 128.455L624.972 129.136C624.82 128.735 624.597 128.345 624.301 127.966C624.013 127.58 623.619 127.261 623.119 127.011C622.619 126.761 621.979 126.636 621.199 126.636C620.131 126.636 619.241 126.883 618.528 127.375C617.824 127.86 617.472 128.477 617.472 129.227C617.472 129.894 617.714 130.42 618.199 130.807C618.684 131.193 619.441 131.515 620.472 131.773L623.062 132.409C624.623 132.788 625.786 133.367 626.551 134.148C627.316 134.92 627.699 135.917 627.699 137.136C627.699 138.136 627.411 139.03 626.835 139.818C626.267 140.606 625.472 141.227 624.449 141.682C623.426 142.136 622.237 142.364 620.881 142.364C619.1 142.364 617.627 141.977 616.46 141.205C615.294 140.432 614.555 139.303 614.244 137.818L616.79 137.182C617.032 138.121 617.491 138.826 618.165 139.295C618.847 139.765 619.737 140 620.835 140C622.085 140 623.078 139.735 623.812 139.205C624.555 138.667 624.926 138.023 624.926 137.273C624.926 136.667 624.714 136.159 624.29 135.75C623.866 135.333 623.214 135.023 622.335 134.818L619.426 134.136C617.828 133.758 616.653 133.17 615.903 132.375C615.161 131.572 614.79 130.568 614.79 129.364C614.79 128.379 615.066 127.508 615.619 126.75C616.18 125.992 616.941 125.398 617.903 124.966C618.873 124.534 619.972 124.318 621.199 124.318C622.926 124.318 624.282 124.697 625.267 125.455C626.259 126.212 626.964 127.212 627.381 128.455ZM644.099 128.455L641.69 129.136C641.539 128.735 641.315 128.345 641.02 127.966C640.732 127.58 640.338 127.261 639.838 127.011C639.338 126.761 638.698 126.636 637.918 126.636C636.849 126.636 635.959 126.883 635.247 127.375C634.543 127.86 634.19 128.477 634.19 129.227C634.19 129.894 634.433 130.42 634.918 130.807C635.402 131.193 636.16 131.515 637.19 131.773L639.781 132.409C641.342 132.788 642.505 133.367 643.27 134.148C644.035 134.92 644.418 135.917 644.418 137.136C644.418 138.136 644.13 139.03 643.554 139.818C642.986 140.606 642.19 141.227 641.168 141.682C640.145 142.136 638.955 142.364 637.599 142.364C635.819 142.364 634.346 141.977 633.179 141.205C632.012 140.432 631.274 139.303 630.963 137.818L633.509 137.182C633.751 138.121 634.209 138.826 634.884 139.295C635.565 139.765 636.455 140 637.554 140C638.804 140 639.796 139.735 640.531 139.205C641.274 138.667 641.645 138.023 641.645 137.273C641.645 136.667 641.433 136.159 641.009 135.75C640.584 135.333 639.933 135.023 639.054 134.818L636.145 134.136C634.546 133.758 633.372 133.17 632.622 132.375C631.88 131.572 631.509 130.568 631.509 129.364C631.509 128.379 631.785 127.508 632.338 126.75C632.899 125.992 633.66 125.398 634.622 124.966C635.592 124.534 636.69 124.318 637.918 124.318C639.645 124.318 641.001 124.697 641.986 125.455C642.978 126.212 643.683 127.212 644.099 128.455ZM650.409 142.182C649.848 142.182 649.367 141.981 648.966 141.58C648.564 141.178 648.364 140.697 648.364 140.136C648.364 139.576 648.564 139.095 648.966 138.693C649.367 138.292 649.848 138.091 650.409 138.091C650.97 138.091 651.451 138.292 651.852 138.693C652.254 139.095 652.455 139.576 652.455 140.136C652.455 140.508 652.36 140.848 652.17 141.159C651.989 141.47 651.742 141.72 651.432 141.909C651.129 142.091 650.788 142.182 650.409 142.182Z" fill="black"/>
</g>
</svg>
